<?xml version="1.0" encoding="utf-8"?>
<!-- Generator: Adobe Illustrator 20.1.0, SVG Export Plug-In . SVG Version: 6.00 Build 0)  -->
<svg version="1.1" id="Layer_1" xmlns="http://www.w3.org/2000/svg" xmlns:xlink="http://www.w3.org/1999/xlink" x="0px" y="0px"
	 viewBox="0 0 57.9 62" style="enable-background:new 0 0 57.9 62;" xml:space="preserve">
<style type="text/css">
	.st0{fill:#22A4E7;}
</style>
<path class="st0" d="M57.9,12C57.9,12,57.9,12,57.9,12c0-0.1-0.1-0.2-0.1-0.3c0,0,0-0.1,0-0.1c0-0.1-0.1-0.1-0.1-0.2
	c0,0,0,0-0.1-0.1c-0.1-0.1-0.1-0.1-0.2-0.2c0,0,0,0,0,0c0,0,0,0,0,0c-0.1,0-0.1-0.1-0.2-0.1L30,0.1c-0.3-0.1-0.7-0.1-1,0l-28.1,12
	c-0.2,0.1-0.3,0.2-0.5,0.3c0,0,0,0,0,0.1c0,0.1-0.1,0.1-0.1,0.2c0,0,0,0.1,0,0.1c0,0.1-0.1,0.1-0.1,0.2c0,0,0,0.1,0,0.1
	c0,0.1,0,0.2,0,0.3c0,0,0,0,0,0v0c0,0,0,0,0,0v11.3c0,0.6,0.3,1,0.9,1.2l0.7,0.2c-0.1,0.2-0.1,0.4-0.1,0.6v23.3c0,0.5,0.3,1,0.8,1.2
	l25.7,10.6c0,0,0,0,0,0l0,0c0,0,0.1,0,0.1,0c0,0,0.1,0,0.1,0c0.1,0,0.2,0,0.3,0c0.1,0,0.2,0,0.3,0c0,0,0.1,0,0.1,0c0,0,0.1,0,0.1,0
	l25.7-10.3c0.5-0.2,0.8-0.7,0.8-1.2V26.2l1.6-0.6c0.5-0.2,0.8-0.7,0.8-1.2v-12c0,0,0,0,0,0C57.9,12.2,57.9,12.1,57.9,12z M2.7,15.3
	l25.1,9.6v8.5L2.7,23.8V15.3z M27.1,37.7v21L4,49.2v-22l24.2,9.3C27.6,36.5,27.1,37,27.1,37.7z M4.9,13.3L29.5,2.8l23.6,9.6
	l-24,10.2L4.9,13.3z M52.9,49.5l-23.1,9.2v-21c0-0.4-0.2-0.8-0.6-1.1c0.1,0,0.1,0,0.2,0c0,0,0.1,0,0.1,0c0,0,0.1,0,0.1,0l23.2-9.3
	V49.5z M55.3,23.4l-24.8,9.9v-8.5l24.8-10.5V23.4z"/>
</svg>
