<?xml version="1.0" encoding="utf-8"?>
<!-- Generator: Adobe Illustrator 20.1.0, SVG Export Plug-In . SVG Version: 6.00 Build 0)  -->
<svg version="1.1" id="Layer_1" xmlns="http://www.w3.org/2000/svg" xmlns:xlink="http://www.w3.org/1999/xlink" x="0px" y="0px"
	 viewBox="0 0 161.6 197" style="enable-background:new 0 0 161.6 197;" xml:space="preserve">
<style type="text/css">
	.st0{opacity:0.84;}
	.st1{fill:#BC0625;}
</style>
<g class="st0">
	<polygon class="st1" points="61.4,177.1 62.5,175.7 56.7,173.7 56.7,170.8 50.6,169 34.5,169.1 27.8,170.6 27.8,171.6 29.6,170.8 
		28.6,172.4 27.7,174 26.3,176.2 26.3,174.1 26.3,173.9 22.9,175.5 24,176.6 26.2,176.1 31.5,195.9 37.9,195.8 39.8,188.6 46,188.5 
		47.2,196.1 53.6,195.9 54.7,191 58.4,175.9 	"/>
	<rect x="125.1" y="115.9" class="st1" width="7.7" height="1.6"/>
	<path class="st1" d="M161,70.7l-1.2-1.3l1.8-2.2l-3.9-4.1c3.3-9.4,0.2-14.3,0.2-14.3c-9.4-13.7-23.6-5.3-23.6-5.3l-3.4-1.1v0.6
		l0.3,0.1l0.1,0.3c0.1,0.4,0.1,0.7,0.1,1.1v0.5l0,0c-0.2,3.9-2.6,9.2-3.8,11.8c-0.3,0.6-0.5,1.1-0.6,1.3l-0.2,0.3l-7.1-0.3l0.7-0.9
		c1.6-1.9,3-5.7,4-9.1c0.9-3,1.4-5.6,1.6-6.5l0.1-0.7l0.2,0.1l-0.3-2.3l-3.8-1.3l-0.1-0.8l-0.8-0.4l0.2-1l3.5,0.3l0.4,0.9l29.9,3.6
		l-2.4-4.4l-38.7-10.9C108.6-4.9,81.1,0.4,81.1,0.4l-0.2,0v0l-0.1,0l-0.1,0v0l-0.2,0c0,0-27.5-5.2-32.8,24.5L9,35.7l-2.4,4.4
		l29.9-3.6l0.4-0.9l3.5-0.3l0.2,1l-0.8,0.4l-0.1,0.8l-3.8,1.3l-0.3,2.3l0.2-0.1l0.1,0.7c0.2,0.8,0.7,3.5,1.6,6.5
		c1,3.4,2.3,7.2,4,9.1l0.7,0.9L35,58.5l-0.2-0.3c-0.1-0.2-0.3-0.7-0.6-1.3c-1.3-2.6-3.8-8.3-3.9-12.2v0c0-0.4,0-0.8,0.1-1.1l0.1-0.3
		l0.3-0.1v-0.6l-3.4,1.1c0,0-14.2-8.3-23.6,5.3c0,0-3.1,4.8,0.2,14.3L0,67.2l1.8,2.2l-1.2,1.3l0.6,1l-0.7,0.9l3.6,3.5L5,75.4
		l1.4,1.1l1.4-1l2.2,1.2l4.6-4.9c0,0,4.1,1,8.2-0.3l4,4.3l0.1,6.8l4,2.3v5.2l-4.1,0.1l0.2,5.3l2.1,2.2h1.5l0.2,1.6l-1.5,0.1
		L29,110.9l-3.8,3l-1.2,27.8l3.4,0.2L27,169.7l-6.1,4.6l0.8,0.8l5.1-2.4l0,0.2l-0.1,2l1.1-1.7l0.1-0.2l1-1.6l-1.8,0.9l-0.1,0
		l0.1-2.5l7.4-1.7l16.4-0.1l6.8,1.9v3l6.3,2.1l1-1.2l-7.8-6.1v-8.7l1.1-1.7L57,141.8l2.7-0.6l-2.1-28.5l-3.1-2.2l-0.7-10.7l-1.3-0.4
		l0.2,0l-0.1-1.3l0.3-0.4l1.2,1.7l1.7-1.9l1.5,1.9l1.9-2.3l1.6,2.2l2-2.1l0,2.4l2.4,3.1l15,0.4v0l0.6,0l0.6,0v0l15-0.4l2.4-3.1
		l0-2.4l2,2.1l1.6-2.2l1.9,2.3l1.5-1.9l1.6,1.9l1.2-1.7l0.3,0.4l-0.1,1.3l0.2,0l-1.3,0.4l-0.7,10.7l-3.1,2.2l-2.1,28.5l2.7,0.6
		l-1.1,15.7l1.1,1.7v8.7l-7.8,6.1l1,1.2l6.3-2.1v-3l6.8-1.9l16.4,0.1l7.4,1.7l0.1,2.5l-0.1,0l-0.1-0.1l-0.7-0.3v-1.2l-6.1-1.7
		l-16.1,0l-6.7,1.6l0,1l1.8-0.9l-1,1.6l-1,1.6l-1.4,2.2l0.1-2l0-0.2l-3.4,1.6l1.1,1.1l2.2-0.5l5.3,19.9l6.4-0.1l1.9-7.2l6.2-0.1
		l1.3,7.6l6.4-0.2l1.1-4.9l3.8-15.1l3,1.2l1.1-1.4l-4.7-1.6l0-1.3l0-0.1l5.1,2.4l0.8-0.8l-6.1-4.6l-0.5-27.8l3.4-0.2l-1.2-27.8
		l-3.8-3l-0.3-11.4l-1.5-0.1l0.2-1.6h1.5l2.1-2.2l0.2-5.3l-4.1-0.1v-5.2l4-2.3l0.1-6.8l4-4.3c4.1,1.4,8.2,0.3,8.2,0.3l4.6,4.9
		l2.2-1.2l1.4,1l1.4-1.1l0.9,0.7l3.6-3.5l-0.7-0.9L161,70.7z M133.8,173.7v-0.6l0.1,0.1l0.4,0.6L133.8,173.7z M113.4,79.6h11.8v30.2
		h-11.8V79.6z M105.1,46.5V47H94.4v-0.5H105.1z M94.4,45.3v-0.5h10.7v0.5H94.4z M105.1,48.3v0.5H94.4v-0.5H105.1z M94.5,50.1h10.7
		v0.5H94.5V50.1z M105.1,43.5H94.4v-0.5h10.7V43.5z M57.1,42.9h10.7v0.5H57.1V42.9z M57.1,44.7h10.7v0.5H57.1V44.7z M57.1,46.5h10.7
		V47H57.1V46.5z M57.1,48.3h10.7v0.5H57.1V48.3z M35.8,79.6h11.7v30.2H35.8V79.6z M28.4,114.7h10.2v4.1H28.4V114.7z M37,128.3h-3.2
		v9.5h2.3v8.3h-7.7v-26H37V128.3z M46.1,142h-8v-1.7h8V142z M46.1,137.7h-8v-1.7h8V137.7z M46.1,133.9h-8v-1.7h8V133.9z M56.2,146
		h-7.7v-8.3h2.3v-9.5h-3.2V120h8.7V146z M56.2,114.8v3.8h-9.9v-3.8H56.2z M63.6,73.1l-2.8-3.2l-2,2.1l-1.4-2l-1.9,2.5l-1.4-2.5
		l-0.9,1.2l-0.1,2L52,73.4L50.6,70l0-2.8l0-0.5H52l0.2-2.3l0-0.4l0.3-0.1l2.7-2.2l5.8,2l0.2-1.2l0.1-0.6l2,0.4l0.4,0.1L63.6,73.1z
		 M67.9,52.1H57.1v-0.5h10.7V52.1z M68,50.6H57.2v-0.5H68V50.6z M67.8,33.4v-9.7h27.1v9.7H67.8z M94.4,52.1v-0.5h10.7v0.5H94.4z
		 M108.7,73.3l-0.1-2l-0.9-1.2l-1.4,2.5l-1.9-2.5l-1.4,2l-2-2.1l-2.8,3.2l-0.1-10.6l0.4-0.1l2-0.4l0.1,0.6l0.1,1.2l5.8-2l2.7,2.2
		l0.3,0.1l0,0.4l0.2,2.3h1.4l0,0.5l0.1,2.8l-1.5,3.5L108.7,73.3z M106,114.7h10.2v4.1H106V114.7z M114.7,128.3h-3.2v9.5h2.3v8.3H106
		v-26h8.7V128.3z M123.7,142h-8v-1.7h8V142z M123.7,137.7h-8v-1.7h8V137.7z M123.7,133.9h-8v-1.7h8V133.9z M133.9,146h-7.7v-8.3h2.3
		v-9.5h-3.2V120h8.7V146z M133.8,114.8v3.8H124v-3.8H133.8z"/>
	<rect x="36.9" y="80.7" class="st1" width="9.5" height="28"/>
	<rect x="114.5" y="80.7" class="st1" width="9.5" height="28"/>
	<rect x="107.1" y="115.8" class="st1" width="8" height="1.9"/>
	<polygon class="st1" points="35,138.9 32.7,138.9 32.7,127.1 35.9,127.1 35.9,121.1 29.5,121.1 29.5,144.9 35,144.9 	"/>
	<polygon class="st1" points="62,64.5 61.9,65.2 55.4,63 53.3,64.7 53.1,67.8 51.7,67.8 51.7,69.8 52.1,70.8 54.2,68 54.6,68.8 
		55.6,70.5 57.4,68.1 58.9,70.3 60.8,68.3 62.5,70.2 62.6,63.3 62.1,63.2 	"/>
	<polygon class="st1" points="51.9,138.9 49.6,138.9 49.6,144.9 55.1,144.9 55.1,121.1 48.7,121.1 48.7,127.1 51.9,127.1 	"/>
	<polygon class="st1" points="112.6,138.9 110.4,138.9 110.4,127.1 113.6,127.1 113.6,121.1 107.1,121.1 107.1,144.9 112.6,144.9 	
		"/>
	<polygon class="st1" points="110,67.8 108.7,67.8 108.4,64.7 106.3,63 99.9,65.2 99.8,64.5 99.6,63.2 99.2,63.3 99.2,70.2 
		100.9,68.3 102.8,70.3 104.4,68.1 106.2,70.5 107.2,68.8 107.6,68 109.6,70.8 110.1,69.8 	"/>
	<polygon class="st1" points="129.6,138.9 127.3,138.9 127.3,144.9 132.8,144.9 132.8,121.1 126.3,121.1 126.3,127.1 129.6,127.1 	
		"/>
	<rect x="29.5" y="115.8" class="st1" width="8" height="1.9"/>
	<rect x="47.4" y="115.9" class="st1" width="7.7" height="1.6"/>
	<polygon class="st1" points="40.9,190 39.1,197 45.9,197 44.8,189.9 	"/>
	<path class="st1" d="M61.9,178.7L61.9,178.7l-0.4-0.1l-2.1-0.8l-3.4,13.5l-1.2,5.7H79l0.4-1.2c0-0.1,0-0.2,0-0.4
		C79.6,190.8,65,180.7,61.9,178.7z"/>
	<path class="st1" d="M23.5,178.2L23.5,178.2c-3,1.4-17.8,9.5-18.4,16.8l1.6,0.2l-0.1,0.5L6.5,197h23.8l-5.1-19.2L23.5,178.2z"/>
	<path class="st1" d="M139,178.7L139,178.7l-0.4-0.1l-2.1-0.8l-3.4,13.5l-1.2,5.7h24.2l0.4-1.2c0-0.1,0-0.2,0-0.4
		C156.7,190.8,142.1,180.7,139,178.7z"/>
	<path class="st1" d="M100.6,178.2L100.6,178.2c-3,1.4-17.8,9.5-18.4,16.8l1.6,0.2l-0.1,0.5l-0.1,1.2h23.8l-5.1-19.2L100.6,178.2z"
		/>
	<polygon class="st1" points="118,190 116.2,197 123,197 121.9,189.9 	"/>
</g>
</svg>
