<?xml version="1.0" encoding="utf-8"?>
<!-- Generator: Adobe Illustrator 20.1.0, SVG Export Plug-In . SVG Version: 6.00 Build 0)  -->
<svg version="1.1" id="Layer_1" xmlns="http://www.w3.org/2000/svg" xmlns:xlink="http://www.w3.org/1999/xlink" x="0px" y="0px"
	 viewBox="0 0 132.9 150.7" style="enable-background:new 0 0 132.9 150.7;" xml:space="preserve">
<style type="text/css">
	.st0{fill:#C9BB0A;}
</style>
<g>
	<path class="st0" d="M132.9,38.5c0-7.4-4.2-13.8-10.3-17.1c-0.8-3.5-3.8-6.3-7.5-6.7V8.2c1.9-0.4,3.4-2.1,3.4-4.1
		c0-2.3-1.9-4.2-4.2-4.2c-2.3,0-4.2,1.9-4.2,4.2c0,1.9,1.3,3.5,3,4v6.6c-3.5,0.4-6.3,2.8-7.3,6c-6.8,3-11.6,9.8-11.6,17.7
		c0,10,7.5,18.1,17.2,19.2c0,0.5,0,1.1,0.2,1.6c-0.8,1.4-1.3,3.1-1.3,4.9c-0.9,0.9-1.7,2-2.4,3.2c-0.1,0.1-0.1,0.2-0.1,0.3
		c-0.7,0.3-1.3,0.6-2,0.9c-0.1,0-0.1,0.1-0.2,0.1c-1.8,0-3.6,0.2-5.5,0.7c-0.2,0-0.3,0.1-0.4,0.1c-2.2-0.5-4.7-0.8-7.2-0.7
		c-0.8,0-1.6,0.2-2.2,0.6C85,62.1,76.3,57.2,66.4,57.2c-9.8,0-18.5,4.9-23.7,12.4C42,69.2,41.3,69,40.5,69c-2.6-0.1-5,0.1-7.2,0.7
		c-0.1-0.1-0.3-0.1-0.4-0.1c-1.9-0.5-3.7-0.7-5.5-0.7c-0.1,0-0.1-0.1-0.2-0.1c-0.7-0.4-1.3-0.7-2-0.9c0-0.1-0.1-0.2-0.1-0.3
		c-0.7-1.2-1.5-2.3-2.4-3.2c0-1.8-0.5-3.5-1.3-4.9c0.2-0.5,0.2-1.1,0.2-1.6c9.7-1.1,17.2-9.2,17.2-19.2c0-7.9-4.8-14.8-11.6-17.7
		c-1-3.2-3.8-5.6-7.3-6V8.2c1.8-0.5,3.2-2.1,3.2-4C22.8,1.9,21,0,18.7,0c-2.3,0-4.2,1.9-4.2,4.2c0,2,1.4,3.6,3.2,4.1v6.5
		c-3.7,0.4-6.7,3.1-7.5,6.7C4.2,24.7,0,31.1,0,38.5c0,8.3,5.2,15.3,12.5,18.1c0,0,0,0.1,0,0.1c-2,1.3-3.4,3.9-3.5,6.8
		c-1.8,3-1.6,7.6,0.8,11.8c0.2,0.3,0.4,0.6,0.6,0.8c0.9,3.4,3.7,6.9,7.9,9.1c0.3,0.2,0.7,0.3,1,0.4c2.1,1.9,4.9,3.4,8.1,4.2
		c0.5,0.1,1,0.2,1.5,0.2c2.6,1.5,5.9,2.5,9.4,2.8c2,8.3,7.5,15.3,15,19.1c-0.1,0.4-0.2,0.9-0.2,1.4c0,2.5,1.7,4.6,4,5.1
		c-0.2,0.5-0.4,1.1-0.4,1.7c0,1.9,1.4,3.5,3.2,3.8c-0.2,0.4-0.3,0.8-0.3,1.3c0,1.2,0.9,2.3,2,2.6v1.9H51V122c0-0.1,0-0.3,0-0.4
		c0,0,0,0,0,0c-0.4-4.2-6.4-7.4-13.8-7.4c-7.4,0-13.4,3.3-13.7,7.4c0,0,0,0,0,0c0,0.1,0,0.3,0,0.4v20.9c0,0.1,0,0.3,0,0.4
		c0,0,0,0,0,0.1c0,0.1,0,0.2,0,0.3c0,0,0,0,0,0c0.7,4,6.6,7,13.7,7c6.9,0,12.6-2.9,13.6-6.6c0,0,0,0,0,0c0-0.1,0.1-0.2,0.1-0.4
		c0,0,0,0,0,0c0-0.1,0-0.2,0-0.3c0,0,0-0.1,0-0.1c0-0.1,0-0.3,0-0.4v-7.3h10.6c0,2.7,2.2,4.8,4.9,4.8c2.7,0,4.9-2.2,4.9-4.8h10.6
		v7.3c0,0.1,0,0.3,0,0.4c0,0,0,0,0,0.1c0,0.1,0,0.2,0,0.3c0,0,0,0,0,0c0.7,4,6.6,7,13.7,7c7.1,0,12.9-3.1,13.7-7c0,0,0,0,0,0
		c0-0.1,0-0.2,0-0.3c0,0,0,0,0-0.1c0-0.1,0-0.3,0-0.4V122c0-0.1,0-0.3,0-0.4c0,0,0,0,0,0c-0.4-4.2-6.4-7.4-13.8-7.4
		c-7.3,0-13.4,3.3-13.8,7.4c0,0,0,0,0,0c0,0.1,0,0.3,0,0.4v7.7H71.3v-1.9c1.1-0.3,2-1.4,2-2.6c0-0.5-0.1-0.9-0.3-1.3
		c1.8-0.3,3.2-1.9,3.2-3.8c0-0.6-0.1-1.2-0.4-1.7c2.3-0.6,4-2.6,4-5.1c0-0.5-0.1-1-0.2-1.4c7.4-3.8,13-10.8,15-19.1
		c3.6-0.3,6.8-1.3,9.4-2.8c0.5,0,1,0,1.5-0.2c3.2-0.9,6-2.4,8.2-4.2c0.3-0.1,0.7-0.2,1-0.4c4.1-2.2,7-5.7,7.9-9.1
		c0.2-0.2,0.5-0.5,0.6-0.8c2.4-4.2,2.5-8.8,0.8-11.8c-0.1-3-1.5-5.5-3.5-6.8c0,0,0-0.1,0-0.1C127.7,53.8,132.9,46.7,132.9,38.5z
		 M7.8,38.5C7.8,32.1,13,27,19.3,27c6.3,0,11.5,5.1,11.5,11.5c0,6.3-5.1,11.5-11.5,11.5C13,50,7.8,44.8,7.8,38.5z M66.4,112.5
		c-1.7,0-3.1-1.4-3.1-3.1c0-1.7,1.4-3.1,3.1-3.1c1.7,0,3.1,1.4,3.1,3.1C69.6,111.1,68.2,112.5,66.4,112.5z M66.4,100.4
		c-3,0-5.4-2.4-5.4-5.4c0-3,2.4-5.4,5.4-5.4c3,0,5.4,2.4,5.4,5.4C71.8,98,69.4,100.4,66.4,100.4z M113.6,50
		c-6.4,0-11.5-5.1-11.5-11.5c0-6.3,5.1-11.5,11.5-11.5c6.3,0,11.5,5.1,11.5,11.5C125.1,44.8,119.9,50,113.6,50z"/>
	<path class="st0" d="M113.6,29.1c-5.2,0-9.4,4.2-9.4,9.4c0,5.2,4.2,9.4,9.4,9.4c5.2,0,9.4-4.2,9.4-9.4
		C123,33.3,118.8,29.1,113.6,29.1z M113.6,45c-3.6,0-6.5-2.9-6.5-6.5c0-3.6,2.9-6.5,6.5-6.5c3.6,0,6.5,2.9,6.5,6.5
		C120.1,42.1,117.2,45,113.6,45z"/>
	<path class="st0" d="M19.3,29.1c-5.2,0-9.4,4.2-9.4,9.4c0,5.2,4.2,9.4,9.4,9.4c5.2,0,9.4-4.2,9.4-9.4
		C28.7,33.3,24.5,29.1,19.3,29.1z M19.3,45c-3.6,0-6.5-2.9-6.5-6.5c0-3.6,2.9-6.5,6.5-6.5c3.6,0,6.5,2.9,6.5,6.5
		C25.8,42.1,22.9,45,19.3,45z"/>
</g>
</svg>
