<?xml version="1.0" standalone="no"?>
<!DOCTYPE svg PUBLIC "-//W3C//DTD SVG 1.1//EN" "http://www.w3.org/Graphics/SVG/1.1/DTD/svg11.dtd" >
<svg>
<metadata>
Created by FontForge 20090622 at Wed Feb 22 14:33:46 2017
 By deploy user
Copyright (c) 2014 by P. Wiegel. All rights reserved.
</metadata>
<defs>
<font id="flottflott" horiz-adv-x="382" >
  <font-face 
    font-family="flottflott"
    font-weight="400"
    font-stretch="normal"
    units-per-em="1000"
    panose-1="0 0 0 0 0 0 0 0 0 0"
    ascent="750"
    descent="-250"
    x-height="320"
    cap-height="705"
    bbox="-153 -329 1078 907"
    underline-thickness="50"
    underline-position="-50"
    unicode-range="U+0020-U+E24B"
  />
<missing-glyph horiz-adv-x="316" 
 />
    <glyph glyph-name=".notdef" horiz-adv-x="316" 
 />
    <glyph glyph-name="b" unicode="b" horiz-adv-x="366" 
d="M313 652l-34 -78l-37.5 -86.5l-34 -78l-23.5 -53.5l-24 -54t-29.5 -71.5t-25 -72t-10.5 -53.5q0 -9 9.5 -14t17.5 -5q14 0 28.5 11.5t27 27.5t21.5 33.5t13 29.5q-12 3 -26.5 6t-17.5 18q3 16 15 35.5t29 36.5t36.5 28.5t36.5 11.5h7q3 -14 7.5 -26t8.5 -26
q12 -3 24.5 -5t23.5 -7q-8 -30 -17 -42t-18 -17t-17 -7.5t-12 -13.5q-12 -32 -31 -64t-44.5 -57.5t-57.5 -42t-69 -16.5q-48 0 -64 26.5t-16 69.5q0 37 10.5 68.5t23.5 64.5l73 185t80 182q7 14 13.5 24.5t22.5 15.5q20 6 40 9.5t40 6.5z" />
    <glyph glyph-name="c" unicode="c" horiz-adv-x="346" 
d="M268 337q30 0 49 -15.5t19 -47.5q0 -10 -1.5 -23.5t-6 -26.5t-11.5 -23.5t-17 -13.5q-14 -5 -27 -9t-28 -4h-6.5t-6.5 1q10 20 17 40.5t7 43.5q-27 0 -55.5 -16.5t-52 -42t-39.5 -55.5t-18 -57q48 -13 96 -11t96 2q-6 -16 -12.5 -30.5t-15.5 -29.5q-8 -13 -21 -14.5
t-27 -1.5q-28 0 -62.5 -0.5t-64.5 6.5t-50 26.5t-20 60.5q0 8 1 12q7 42 31.5 83.5t60 73.5t78 52t87.5 20z" />
    <glyph glyph-name="d" unicode="d" horiz-adv-x="401" 
d="M517 649q-6 -35 -20 -65.5l-28 -62.5q-28 -63 -57.5 -123l-59.5 -121q-6 -11 -11.5 -31.5t-10.5 -43t-8 -43.5t-3 -33q0 -11 1 -21t7 -19q18 -4 36 -5t36 -4q-6 -19 -14.5 -37t-17.5 -35h-48q-36 0 -52 4t-21.5 14t-6.5 27.5t-8 43.5q-26 -23 -39.5 -39.5t-28 -28
t-35.5 -17t-60 -5.5q-9 0 -27 0.5t-26 2.5q-11 3 -19 11.5t-13.5 19.5t-8.5 23t-3 22q0 17 4.5 36t11.5 37.5t16.5 36t20.5 30.5q32 40 80 67t96 40q19 5 38.5 5.5t37.5 6.5q14 31 28 65.5l28.5 69t30.5 67t34 61.5q7 11 22 18.5t32.5 12.5t35.5 8zM62 103v-6.5t1 -6.5
q13 -3 26 -3q43 0 74 31q28 29 54.5 62.5t34.5 73.5q-32 0 -65.5 -10t-61.5 -29t-45.5 -47t-17.5 -65z" />
    <glyph glyph-name="e" unicode="e" horiz-adv-x="363" 
d="M35 104q0 45 19 86t51 73t73.5 51t85.5 19q16 0 31.5 -3.5t28.5 -11t21 -20.5t8 -31q0 -36 -20.5 -65.5t-50.5 -52.5t-65 -40t-63 -28q37 -3 74 -4t74 -1l-5.5 -26.5t-8 -23t-15.5 -16.5t-27 -6q-12 0 -31 -0.5t-39 -0.5h-38t-28 2q-39 5 -57 34.5t-18 64.5zM102 117
q24 12 49.5 26.5t49 32t41 39t25.5 49.5q-28 0 -53.5 -14.5t-47 -36t-38 -47.5t-26.5 -49z" />
    <glyph glyph-name="f" unicode="f" horiz-adv-x="365" 
d="M386 659q-14 -44 -31.5 -86l-36 -83.5l-38 -83t-35.5 -83.5q39 0 78 -2t78 -2q-8 -20 -17 -38.5l-19 -37.5q-34 3 -68 4t-68 4l33 -39.5t28.5 -40.5t20 -45t7.5 -51q0 -33 -13 -74t-35 -84t-51.5 -84t-63.5 -73t-70.5 -51.5t-71.5 -19.5q-19 0 -32 7.5t-21.5 19.5
t-12 27.5t-3.5 32.5q0 64 20 124t46.5 117l53.5 113t41 114q-17 9 -35.5 15.5l-36.5 12.5q8 17 19.5 30t24.5 26q17 5 34.5 3t34.5 -5q16 39 35 76l37 74l35 74t30 76q3 12 15 17q20 8 43.5 9t44.5 7zM30 -220q0 -3 0.5 -6t0.5 -6q34 12 70.5 49.5t66.5 84t49.5 95.5
t19.5 84q0 32 -15.5 59.5t-36.5 50.5l-44 -97l-51 -113.5t-42.5 -111t-17.5 -89.5z" />
    <glyph glyph-name="g" unicode="g" horiz-adv-x="379" 
d="M358 336q30 0 55 -7l-24 -36l-24 -35q-9 -6 -21 -5.5t-30 -2.5q-56 0 -108 -27.5t-81 -76.5q-6 -11 -11.5 -23t-5.5 -24q0 -10 4 -17q11 -8 25 -8q22 0 41 13t35 32t28 40.5t20 38.5q5 11 18 17.5t28 10t30.5 4.5t26.5 1q5 0 8.5 -0.5t8.5 -1.5q-7 -20 -17.5 -38.5
l-21 -37l-21 -37t-17.5 -38.5l-30 -80t-38.5 -89t-48.5 -88t-60 -76.5t-72.5 -53.5t-86.5 -20h-9l5 37.5t11 34.5t22 17t26 11q22 12 42 29.5t37 38.5t30.5 44.5t23.5 46.5q9 23 19.5 45.5t16.5 46.5q-22 -11 -45 -18t-47 -7q-40 0 -60.5 23.5t-20.5 62.5q0 40 17 72.5
t41 62.5q54 67 125.5 92.5t155.5 25.5z" />
    <glyph glyph-name="h" unicode="h" horiz-adv-x="355" 
d="M223 632q21 12 45 12.5t47 3.5q-21 -60 -48 -118l-53 -117q-21 -49 -45 -95.5t-43 -96.5l38 33.5t40 32t44.5 24t50.5 9.5q21 0 31 -19.5t10 -38.5q0 -12 -9 -36t-21 -52l-24 -53.5t-17 -40.5h76q-9 -19 -16.5 -38l-15.5 -38q-41 0 -67.5 -2t-49.5 -2q-13 0 -22.5 12.5
t-9.5 24.5q0 15 9.5 39t22 51l25 53t17.5 44q-23 -5 -48.5 -23.5t-49.5 -42.5t-45 -49.5t-34 -43.5q-9 -12 -16 -26t-16 -26q-20 -6 -41.5 -7.5t-42.5 -4.5q61 127 113 256t113 256q14 29 24 60.5t28 58.5z" />
    <glyph glyph-name="i" unicode="i" horiz-adv-x="209" 
d="M217 531q27 -2 45.5 -23.5t18.5 -47.5q0 -30 -20.5 -50t-50.5 -20q-29 0 -49.5 16.5t-20.5 47.5q0 18 10 39.5t27 29.5q9 4 19.5 4.5t20.5 3.5zM112 312q22 3 44 3.5t44 3.5q-23 -59 -51.5 -118.5t-47.5 -120.5q15 -3 34 -2t35 1q-6 -17 -16 -40t-19 -39q-11 -2 -19 0.5
t-19 2.5q-16 0 -31.5 0.5t-28 5t-20 14.5t-7.5 30q0 30 13 59.5l25 55.5q17 36 32 72.5t32 71.5z" />
    <glyph glyph-name="j" unicode="j" horiz-adv-x="305" 
d="M317 547q29 0 47.5 -18.5t18.5 -46.5q0 -12 -5 -25t-13.5 -23.5t-20 -17.5t-24.5 -7q-29 0 -50.5 20.5t-21.5 49.5q0 31 19.5 49.5t49.5 18.5zM308 338q-3 -14 -8.5 -26.5l-11.5 -25.5l-74.5 -154.5l-70.5 -156.5l-36.5 -82t-40 -70t-53 -59.5t-75.5 -51.5
q-17 -9 -35 -12.5t-37 -3.5q13 46 36 84q7 11 16.5 18.5t20 13.5l20.5 12t19 15q15 15 35.5 52t41 79.5t37 82.5t23.5 62q-23 -10 -45 -22t-47 -18q6 20 14 42.5t19 41.5q9 16 23.5 25t28.5 19q32 21 56 47.5t52 52.5q7 7 19 12t25 9t25.5 7t22.5 7z" />
    <glyph glyph-name="k" unicode="k" horiz-adv-x="376" 
d="M251 626q20 16 45.5 18t50.5 5q-9 -36 -25.5 -70.5t-30.5 -69.5q-27 -72 -60.5 -139.5t-60.5 -139.5q33 21 63.5 46t64.5 45l6 1q6 0 16 -4.5t20.5 -11t18 -13.5t7.5 -12q0 -7 -7.5 -12t-12.5 -8q-33 -20 -63.5 -43.5l-60.5 -47.5q0 -7 -0.5 -13.5t-0.5 -13.5
q0 -17 4 -33t16 -28q21 -7 43.5 -6t44.5 1q4 -5 6 -12q-6 -17 -14.5 -32t-15.5 -32q-14 2 -28.5 1t-28.5 -1q-17 0 -37.5 3.5t-33.5 17.5q-10 10 -17 25.5t-11.5 33t-7 34.5t-3.5 31q-22 -30 -39 -68.5l-32 -72.5h-89q6 20 12 36.5t15 36.5l40.5 88l40.5 88l82.5 186.5z" />
    <glyph glyph-name="l" unicode="l" horiz-adv-x="214" 
d="M339 649q-54 -143 -115.5 -283.5l-123.5 -280.5q23 -3 46 -5t46 1q-5 -18 -14 -38t-22 -34q-8 -9 -17 -7t-19 -1q-13 1 -27 1t-27.5 1.5t-26.5 6t-23 15.5q-6 15 -6 31q0 20 7 41t15 40l100.5 249.5l106.5 246.5q6 13 18 16t26.5 2t29 -3t26.5 1z" />
    <glyph glyph-name="m" unicode="m" horiz-adv-x="574" 
d="M107 312l52 11.5t52 8.5l-22.5 -45t-17.5 -47l35 27t41.5 28t43.5 22t42 9q23 0 32.5 -13t9.5 -35q0 -10 -2.5 -19.5t-5.5 -19.5l35 27t37.5 26t40 19.5t43.5 7.5q22 0 31.5 -19.5t9.5 -37.5t-9 -41.5t-21 -48.5l-23.5 -49.5t-17.5 -43.5h66q-6 -18 -13.5 -38.5
t-15.5 -37.5h-108q-12 0 -24.5 13.5t-12.5 25.5q0 9 10.5 33l23.5 53l25 58t15 49q-35 -18 -64 -44t-54 -57t-46.5 -64t-40.5 -66h-88l54 113.5t43 117.5q-59 -29 -104 -81.5t-77 -109.5q-4 -7 -10.5 -21.5t-14.5 -17.5q-5 -2 -16 -2.5t-23 0l-23 1t-17 0.5q3 14 11.5 38
t20.5 54l26 62l27.5 62l25 54z" />
    <glyph glyph-name="n" unicode="n" horiz-adv-x="381" 
d="M111 314l96 12q-9 -27 -23.5 -51.5t-20.5 -52.5l33 28t42.5 32.5t44.5 27t40 11.5q20 0 34 -15t14 -35q0 -21 -9 -46t-21 -50l-24.5 -50t-19.5 -46h69q-3 -19 -10.5 -40t-17.5 -38q-12 1 -36 0t-48 1t-42 10.5t-18 28.5q0 13 9.5 37.5t22.5 52l24.5 54t16.5 44.5
q-22 -3 -49 -25.5t-52.5 -52t-47 -60t-32.5 -49.5q-2 -3 -3.5 -9l-3 -12t-4 -10.5t-6.5 -5.5q-8 -3 -20.5 -3.5t-26 -0.5t-26.5 0.5t-22 0.5q23 62 52.5 120t52.5 120q7 19 15 36.5z" />
    <glyph glyph-name="o" unicode="o" horiz-adv-x="343" 
d="M199 333q44 0 69.5 -20t39.5 -61q13 -3 26 -3.5t26 -0.5q-3 -17 -6.5 -32.5t-9.5 -31.5q-10 -7 -22.5 -11.5t-17.5 -16.5q-14 -30 -26.5 -59.5t-38.5 -52.5q-20 -17 -49 -30.5t-55 -13.5q-57 0 -91 27.5t-34 87.5q0 37 14.5 76t40 70.5t60 51.5t74.5 20zM134 78
q19 0 33 8.5t25.5 22t20 29t15.5 30.5q-17 9 -26 17t-13 18t-4.5 23t-0.5 30q-40 -12 -66.5 -47t-26.5 -77q0 -23 8.5 -38.5t34.5 -15.5z" />
    <glyph glyph-name="p" unicode="p" horiz-adv-x="462" 
d="M342 339q41 0 67.5 -27t26.5 -67q0 -24 -9 -47.5t-23.5 -45t-32 -40t-34.5 -33.5q19 -1 42 2.5t42 0.5l-16.5 -39.5t-20.5 -37.5l-131.5 -4t-131.5 -2l10 24t11 22.5t15.5 18.5t23.5 11q32 7 62.5 24t54.5 41t39 54t17 65h-7q-32 0 -61.5 -19.5t-51.5 -40.5
q-51 -48 -83.5 -88.5t-55.5 -82t-43.5 -88.5l-47.5 -108q-12 -28 -22.5 -56.5t-25.5 -55.5q-23 -9 -48 -14t-48 -14q0 3 -3 4.5t-5 3.5q17 48 37 93l40 91q20 45 42.5 86.5t37.5 89.5q20 64 30.5 126t10.5 130h9q18 0 35.5 1.5t35.5 1.5q3 -8 4 -17t1 -18q0 -20 -3.5 -38.5
t-5.5 -38.5q19 21 44 44t53 42.5t58.5 32.5t60.5 13z" />
    <glyph glyph-name="q" unicode="q" horiz-adv-x="412" 
d="M354 341q10 0 26.5 -3t21.5 -13q-6 -19 -18 -34.5t-26 -29.5q-29 -6 -56.5 -6t-55.5 -10q-22 -9 -48 -23.5t-48.5 -34t-37.5 -43.5t-15 -50q0 -8 7.5 -11.5t13.5 -3.5q21 0 36.5 12t28 28t23 32.5t20.5 25.5q7 6 19.5 10.5t26.5 7.5t27.5 5.5t22.5 4.5
q-12 -33 -29.5 -64.5t-31.5 -63.5l-16 -34l-25 -53l-29 -62l-28 -60.5t-21 -49.5t-8 -27t2 -12.5l4 -12.5q28 13 49.5 34t36.5 47.5t22.5 56t7.5 59.5q0 13 -2 24.5t-2 23.5q0 20 15 37t26 33h104q-6 -20 -16 -38.5l-20 -37.5h-36q2 -17 3 -34.5t1 -34.5q0 -42 -18.5 -86
t-50 -79.5t-72.5 -58t-85 -22.5q-14 0 -24.5 6.5t-17.5 16.5t-10.5 23t-3.5 25q0 23 12 58.5t28.5 73t33.5 72.5l28 57l-32 -13.5t-33 -6.5q-38 0 -56 25t-18 60q0 23 7.5 47t20.5 44q25 39 60.5 69t77 51t87.5 32t91 11z" />
    <glyph glyph-name="r" unicode="r" horiz-adv-x="317" 
d="M100 368h64q-3 -17 -9.5 -31t-11.5 -30q46 0 92.5 1t92.5 4l-10 -33t-14 -31q-17 -10 -34.5 -17.5t-29.5 -22.5q-19 -23 -37.5 -49.5t-19.5 -58.5q-3 -10 11.5 -14t34.5 -5.5t40 -1t26 0.5q-6 -20 -16 -38.5l-20 -37.5q-18 2 -36.5 0.5t-37.5 -1.5q-52 0 -73 20t-21 73
q0 14 10.5 35t25 42t29.5 40.5l24 30.5q-8 0 -16 0.5t-16 0.5q-16 0 -24.5 -3t-13.5 -9.5t-8.5 -15.5t-9.5 -21q-17 1 -34 1h-34q3 9 13.5 35.5l22.5 55.5t23.5 53t16.5 27z" />
    <glyph glyph-name="s" unicode="s" horiz-adv-x="277" 
d="M249 376h9t9 -1q-12 -21 -29.5 -39t-26.5 -41q7 -35 17.5 -70t10.5 -72q0 -8 -1 -21t-4 -21q-6 -15 -16 -32t-23 -32t-29 -26t-32 -14q-38 -8 -79.5 -6t-80.5 -1q2 6 5.5 18t8.5 24.5t10.5 22t11.5 11.5q5 1 17.5 2t27.5 1.5l30 1t25 2.5q18 3 25 12.5t15 23.5q6 11 9 20
t3 22q0 16 -3.5 31l-7.5 31q-15 -12 -27.5 -26.5l-24.5 -29.5q-19 3 -37 8.5t-35 12.5l49 58.5t47 60.5q4 6 11 15.5t15 18.5t16 16.5t14 9.5q14 5 35 7t35 2z" />
    <glyph glyph-name="t" unicode="t" horiz-adv-x="282" 
d="M168 430q22 6 44 5.5t45 2.5q-10 -32 -25 -62t-28 -62q17 -3 34 -4t34 -4q-6 -19 -13.5 -37t-18.5 -35q-11 -3 -21.5 -2t-20.5 1q-13 0 -21 -3.5t-13 -15.5l-30 -65t-27 -67q24 -3 48 -4t48 -4q-3 -21 -13.5 -40t-22.5 -36q-28 0 -58 1.5t-58 6.5q-17 3 -29 17.5
t-12 32.5q0 14 8 37t19 48.5l22 49t17 39.5q-14 3 -28 4t-28 1q11 37 32 75h60q19 28 28 60t28 60z" />
    <glyph glyph-name="u" unicode="u" 
d="M372 321q-6 -26 -17 -51.5t-23 -48.5q-8 -15 -17.5 -28t-18 -26.5t-14 -29t-5.5 -34.5q0 -13 10 -18.5t24 -7t28.5 -1t23.5 0.5q-5 -20 -12 -39t-16 -37q-24 0 -50.5 -0.5t-49.5 4.5q-15 3 -24.5 16.5t-19.5 23.5q-15 -7 -28.5 -15.5l-27 -16.5t-28.5 -13.5t-32 -5.5
q-10 0 -21.5 4.5t-21 12t-16 17.5t-6.5 21q0 9 6 29t15 45l20 53l22 53.5t20.5 45.5l14.5 30q20 11 42.5 12t45.5 4q-9 -32 -22 -63l-25.5 -62t-24 -62.5t-17.5 -64.5q23 10 41 22t35 30q9 9 13 18.5t7 19t5.5 19t7.5 19.5q4 9 11.5 23l15 29t15.5 28.5t14 19.5q8 9 20.5 13
t26.5 6t28 2.5t25 2.5z" />
    <glyph glyph-name="v" unicode="v" horiz-adv-x="314" 
d="M53 304q22 6 44 9.5t44 6.5l-17.5 -48.5t-18 -52t-14 -52.5t-5.5 -51q0 -15 6 -28q23 17 48 42t33 54q2 8 0.5 15t-1.5 15q0 12 14.5 30t35 35t41 29t32.5 12q11 0 13.5 -7.5t6.5 -16.5t13 -17t33 -8l-12.5 -36.5t-15.5 -35.5q-8 -2 -16.5 -1t-16.5 1q-5 0 -10 -1t-9 -3
q-9 -5 -19 -17.5l-21 -26.5l-21.5 -28t-19.5 -23l-37 -35.5t-37.5 -32.5t-41.5 -26.5t-48 -17.5q-10 12 -15 28t-7.5 33t-3 34.5t-0.5 32.5q0 97 43 188z" />
    <glyph glyph-name="w" unicode="w" horiz-adv-x="484" 
d="M219 302q20 11 42.5 14l45.5 6l-36.5 -102.5t-17.5 -106.5v-11.5t1 -11.5q28 18 51 42t38 54q-2 9 -5 17.5t-3 17.5q0 7 2 11.5t6 9.5q12 14 26.5 28t32 25.5t36 19t37.5 7.5q0 -11 2 -22t2 -22q12 -3 24 -6.5t24 -6.5q-9 -15 -15.5 -31.5t-16.5 -31.5q-9 -2 -18 -2
t-17 -0.5t-15.5 -4.5t-13.5 -13q-12 -18 -38 -50t-57.5 -63t-63 -54t-53.5 -23q-15 0 -23 8.5t-13 20.5t-7.5 25.5t-5.5 24.5q-14 -8 -27 -20.5l-26.5 -24.5t-28 -20.5t-32.5 -8.5q-17 0 -26.5 12.5t-14 30.5t-5 37t-0.5 31q0 51 14 101t31 98l88 12l-15.5 -43t-18 -56
t-15 -56t-6.5 -42q0 -16 6 -31l29 25t26 25.5t20.5 29t13.5 36.5q5 24 14 49t22 46z" />
    <glyph glyph-name="x" unicode="x" horiz-adv-x="422" 
d="M123 321q20 -3 39 -5t37 -11q3 0 3.5 -3t0.5 -5q8 -23 13 -46t11 -46q28 21 48.5 45.5l43.5 50.5q9 11 21.5 14.5t26.5 3.5q16 0 32 -2.5t32 -0.5q-33 -53 -78 -95.5t-87 -87.5q-7 -9 -7 -16q0 -10 6.5 -20t16.5 -12q22 -5 48 -5h48q-5 -22 -16 -41.5t-24 -38.5
q-8 0 -22 0.5t-29.5 0.5t-29 1t-19.5 3q-7 2 -12.5 8.5t-11 14.5t-11.5 15t-13 10q-17 -9 -29 -24.5t-27 -27.5q-9 1 -18.5 1.5t-18.5 0.5q-22 0 -43.5 2t-43.5 0q17 18 37 34.5l40 32t39.5 32.5t36.5 37q-9 45 -21.5 89.5t-18.5 90.5z" />
    <glyph glyph-name="y" unicode="y" horiz-adv-x="379" 
d="M106 284q25 12 50.5 22.5t53.5 13.5q-24 -60 -50.5 -118.5t-42.5 -121.5q26 6 47.5 25t41.5 35q17 13 27 36t18 46t17 42.5t26 26.5q26 11 53.5 16.5t54.5 11.5q-10 -26 -23.5 -48.5l-27.5 -44l-27 -42t-22 -41.5q-9 -22 -15 -46.5t-14 -47.5q-8 -28 -18 -55t-18 -55
q-13 -44 -30.5 -80.5t-42.5 -74.5q-20 -30 -48 -49.5t-60 -34.5q-23 -11 -46.5 -15.5t-49.5 -4.5q4 9 10.5 21l13.5 25t14.5 24.5t13.5 17.5q9 8 19 14t21 11t21 11.5t19 15.5q21 23 35.5 49.5t25 54.5t19 57.5l17.5 58.5q-11 -5 -24 -12.5t-27 -14.5t-27.5 -12t-25.5 -5
q-6 0 -14 3.5t-16 8.5t-14 11.5t-8 12.5q-2 5 -2.5 15t-0.5 15q0 20 7.5 51.5t18.5 64t24.5 61.5t25.5 45z" />
    <glyph glyph-name="z" unicode="z" horiz-adv-x="270" 
d="M176 323q45 0 64.5 -20.5t19.5 -64.5q0 -21 -6 -40t-14.5 -37t-18.5 -35.5t-18 -35.5l31.5 -37.5t16.5 -44.5q0 -47 -16.5 -86.5t-42 -74t-56 -66l-58.5 -62.5q-14 -16 -27.5 -21t-34.5 -5q-15 0 -30.5 2t-31.5 0q23 31 49.5 59l53 55t51 55.5t43.5 61.5q6 11 11 31t5 32
q0 11 -4 20.5t-12 16.5q-8 -4 -15.5 -10t-15.5 -11q-23 -3 -46 -4t-47 2l40 46.5t51 62t43.5 64.5t18.5 54q0 8 -6.5 12.5t-13.5 7.5q-36 -2 -71 -10.5t-69 -20.5q3 25 14.5 46.5t25.5 41.5q6 4 22 7t34 5t34.5 3t25.5 1z" />
    <glyph glyph-name="adieresis" unicode="&#xe4;" horiz-adv-x="426" 
d="M203 526q22 0 39 -16t17 -39q0 -21 -15.5 -41.5t-38.5 -20.5q-27 0 -42.5 15t-15.5 42q0 26 15 43t41 17zM356 530q26 0 43 -20t17 -45q0 -23 -15.5 -38.5t-38.5 -15.5q-12 0 -23.5 4t-20.5 11.5t-14 18.5t-3 24q-1 3 -1 10q0 21 18 36t38 15zM368 325q-3 -23 -14 -43.5
l-22 -40.5q-5 1 -9 1h-9q-35 0 -68.5 -10t-62 -28.5t-51.5 -44.5t-37 -58q-2 -6 -2 -10q0 -5 4 -7.5t10 -4t12 -2t10 -0.5q19 0 32.5 7.5t21.5 24.5q11 23 19.5 47l17.5 49q23 0 44.5 2.5t43.5 5.5q-9 -32 -25 -66.5t-22 -67.5h90l-13 -38.5t-19 -35.5q-15 -2 -29.5 -3.5
t-29.5 -1.5q-18 0 -35.5 5t-29.5 20q-23 -14 -48.5 -19t-51.5 -5q-17 0 -32.5 3t-27 11t-18.5 21t-7 33q0 23 5 45q3 11 12 28.5t21 36t24 34.5t20 24q26 24 59.5 40t70.5 26t74.5 15t71.5 7z" />
    <glyph glyph-name="odieresis" unicode="&#xf6;" horiz-adv-x="372" 
d="M202 515q27 0 42.5 -17.5t15.5 -43.5q0 -28 -17.5 -42.5t-44.5 -14.5q-26 0 -39.5 16.5t-13.5 42.5t15 42.5t42 16.5zM357 515q27 0 42.5 -18.5t15.5 -44.5t-16.5 -40.5t-42.5 -14.5q-24 0 -40 18t-16 42q0 23 17 40.5t40 17.5zM211 328q26 0 49.5 -13.5t37.5 -35.5
q5 -9 9.5 -18.5t10.5 -17.5q12 -3 24 -2t24 -2q-14 -35 -20 -68l-21.5 -5t-14.5 -15q-12 -29 -28.5 -57t-38.5 -50t-50 -35t-63 -13q-57 0 -88.5 32.5t-31.5 89.5q0 37 17 74.5t45 67.5t64.5 49t74.5 19zM89 130q0 -21 12 -38t35 -17q21 0 35.5 8t25 20.5t18 28.5l15.5 32
l-25 25t-10 13.5t-4 16.5t-5 33q-17 -3 -34 -16.5t-31 -31t-23 -37.5t-9 -37z" />
    <glyph glyph-name="udieresis" unicode="&#xfc;" horiz-adv-x="412" 
d="M341 524q25 0 43 -20t18 -44t-20 -41t-43 -17t-38.5 20t-15.5 42q0 10 4.5 20.5t12.5 19.5t18 14.5t21 5.5zM195 516q23 0 37.5 -16.5t14.5 -39.5q0 -30 -17 -44.5t-46 -14.5q-20 0 -35.5 15.5t-15.5 35.5q0 32 16.5 48t45.5 16zM97 303l47.5 11.5t48.5 7.5
q-11 -32 -24.5 -63l-26.5 -61.5t-24.5 -62t-17.5 -64.5q11 1 24 6.5t25 13t22.5 17t16.5 18.5q8 12 13 28.5t10 30.5l24.5 61.5t29.5 59.5q24 9 49.5 11t50.5 5q-13 -50 -37 -90.5t-47 -85.5q-4 -8 -6.5 -18t-2.5 -18q0 -19 12 -28l75 -3q-3 -18 -9 -38t-18 -35
q-25 -6 -50.5 -5.5t-49.5 5.5q-15 3 -24 17t-20 23l-54.5 -34t-61.5 -17q-23 0 -42.5 13.5t-19.5 39.5q0 19 11 53.5t25 72l28.5 73z" />
    <glyph glyph-name="space" unicode=" " horiz-adv-x="316" 
 />
    <glyph glyph-name="germandbls" unicode="&#xdf;" horiz-adv-x="420" 
d="M416 656q39 0 67.5 -14t44.5 -52q7 -16 11 -30t4 -32q0 -38 -17 -74t-43 -68.5t-57 -60.5t-59 -50q11 -27 18.5 -55.5t7.5 -57.5q0 -34 -10 -63q-17 -46 -40.5 -67t-53 -29t-64.5 -8.5t-74 -3.5q3 23 13 43.5l19 40.5q11 0 23 -1t23 -1q12 0 23.5 2t22.5 8q6 7 11.5 17.5
t10 22.5t7.5 23.5t3 20.5q0 32 -19 59t-41 49l60 48.5t70 64t58 70.5t24 69q0 28 -19 44q-9 4 -23 4q-31 0 -60 -25.5t-53 -61.5t-43 -74t-29 -63q-41 -94 -77 -188t-76 -188l-54.5 -128.5t-57.5 -127.5h-16q-17 -11 -36.5 -15t-39.5 -9q0 10 8.5 34l19 51.5l21 53
l15.5 37.5l69.5 169l71.5 169q12 30 25.5 59t25.5 59l34 81t40 79.5t50 72t65 59.5q23 16 45 26.5t51 10.5z" />
    <glyph glyph-name="t_z" unicode="&#xe23a;" horiz-adv-x="433" 
d="M254 430q-12 -32 -27.5 -63t-25.5 -65q26 0 50.5 2t49.5 2q21 0 43 -2t39.5 -10.5t28.5 -24.5t11 -43q0 -18 -6.5 -36t-15.5 -36t-19 -35.5t-17 -32.5q9 -11 18 -20.5t15.5 -20t11 -22.5t4.5 -28q0 -39 -19 -81.5t-46.5 -83t-60 -76t-59.5 -60.5q-29 -7 -63 -7
q-23 0 -45 3q14 26 35.5 44t40.5 40l37.5 44t42.5 55t34.5 58t14.5 53q0 19 -9 34q-14 -11 -25 -16.5t-21.5 -7.5t-23 -2h-29.5q-6 0 -12.5 0.5t-12.5 1.5q15 25 37 50.5l43.5 52.5t38 55.5t21.5 57.5q-12 8 -28 11.5t-33.5 4.5t-35 0.5t-31.5 -0.5q-13 0 -22.5 -2.5
t-17.5 -13.5q-18 -29 -32 -62t-20 -66q22 -3 44 -2.5t44 -5.5l-15.5 -38t-16.5 -38q-30 -3 -60 -3h-35.5t-32 5t-23 16.5t-8.5 35.5q0 18 7 42t16.5 48.5t19.5 46.5t16 37h-52l7.5 24t11 26t16 20.5t23.5 8.5q9 0 17.5 -1.5t16.5 -1.5q2 6 10 25l17 39.5t17.5 37t12.5 18.5
q20 7 44 7.5t44 0.5z" />
    <glyph glyph-name="t_z" unicode="&#xeedc;" horiz-adv-x="433" 
d="M254 430q-12 -32 -27.5 -63t-25.5 -65q26 0 50.5 2t49.5 2q21 0 43 -2t39.5 -10.5t28.5 -24.5t11 -43q0 -18 -6.5 -36t-15.5 -36t-19 -35.5t-17 -32.5q9 -11 18 -20.5t15.5 -20t11 -22.5t4.5 -28q0 -39 -19 -81.5t-46.5 -83t-60 -76t-59.5 -60.5q-29 -7 -63 -7
q-23 0 -45 3q14 26 35.5 44t40.5 40l37.5 44t42.5 55t34.5 58t14.5 53q0 19 -9 34q-14 -11 -25 -16.5t-21.5 -7.5t-23 -2h-29.5q-6 0 -12.5 0.5t-12.5 1.5q15 25 37 50.5l43.5 52.5t38 55.5t21.5 57.5q-12 8 -28 11.5t-33.5 4.5t-35 0.5t-31.5 -0.5q-13 0 -22.5 -2.5
t-17.5 -13.5q-18 -29 -32 -62t-20 -66q22 -3 44 -2.5t44 -5.5l-15.5 -38t-16.5 -38q-30 -3 -60 -3h-35.5t-32 5t-23 16.5t-8.5 35.5q0 18 7 42t16.5 48.5t19.5 46.5t16 37h-52l7.5 24t11 26t16 20.5t23.5 8.5q9 0 17.5 -1.5t16.5 -1.5q2 6 10 25l17 39.5t17.5 37t12.5 18.5
q20 7 44 7.5t44 0.5z" />
    <glyph glyph-name="ampersand" unicode="&#x26;" horiz-adv-x="511" 
d="M338 563q43 0 70.5 -29.5t27.5 -71.5q0 -28 -15.5 -53t-38.5 -46.5t-48.5 -40l-44.5 -33.5q3 -5 9 -18l13 -27t14 -25t12 -11q6 0 20.5 11.5t31 26l31.5 28.5t21 19q8 -20 15 -40t17 -40l-50 -38l-50 -38q9 -15 16 -31t20 -29q7 -7 8 -5.5t8 -2.5q19 0 38 2t38 2
q-4 -9 -7.5 -22t-9 -25t-14 -20.5t-21.5 -8.5h-96q-12 22 -25 43t-27 41q-22 -14 -41.5 -29.5t-40 -28.5t-43 -21.5t-50.5 -8.5q-25 0 -46.5 9.5t-37 25.5t-24 37.5t-8.5 46.5q0 34 17.5 62.5t43 52.5t55.5 43l55 35q-5 23 -16 45.5t-11 47.5q0 33 17 62.5t44 52.5
t59.5 36.5t63.5 13.5zM239 409q0 -11 5 -22l10 -22l27 18t36 25.5t31 28t13 26.5q0 6 -6 14t-13 8q-14 0 -31.5 -6t-33.5 -16.5t-27 -24.5t-11 -29zM89 98q9 -5 18.5 -12.5t20.5 -7.5q14 0 33 9t38.5 22t37 26t28.5 22q-12 17 -23 35t-21 37l-43.5 -21.5t-42 -27
t-32.5 -35.5t-14 -47z" />
    <glyph glyph-name="period" unicode="." horiz-adv-x="164" 
d="M84 150q29 0 49.5 -22.5t20.5 -50.5q0 -14 -7 -28t-18.5 -25t-25.5 -18.5t-27 -7.5q-16 0 -28 8t-20.5 20.5t-13 28t-4.5 29.5q0 30 23 48t51 18z" />
    <glyph glyph-name="comma" unicode="," horiz-adv-x="186" 
d="M94 145q35 0 58.5 -18.5t23.5 -55.5q0 -17 -7.5 -37t-18.5 -40t-24 -38t-24 -31q-8 -10 -19 -13.5t-23 -3.5h-16.5t-16 2.5t-12.5 7.5t-5 15q12 19 27.5 35t24.5 37q-5 12 -10 18.5t-9.5 13t-7 15t-2.5 25.5q0 11 5.5 23t14 22t19.5 16.5t22 6.5z" />
    <glyph glyph-name="colon" unicode=":" horiz-adv-x="236" 
d="M153 318q41 0 57 -25t16 -61q0 -27 -20.5 -44t-46.5 -17q-35 0 -55 19.5t-20 54.5q0 30 19 51.5t50 21.5zM77 150q35 0 57.5 -22.5t22.5 -57.5t-23.5 -53t-55.5 -18q-28 0 -48 22.5t-20 49.5q0 13 5 27.5t14 25.5t21 18.5t27 7.5z" />
    <glyph glyph-name="semicolon" unicode=";" horiz-adv-x="272" 
d="M185 310q15 0 29 -7t24.5 -18t17 -25.5t6.5 -29.5q0 -32 -24.5 -50.5t-52.5 -18.5q-29 0 -50.5 21.5t-21.5 50.5q0 31 20 54t52 23zM38 66q0 15 5.5 29t15.5 25.5t23.5 18.5t28.5 7q29 0 50.5 -22t21.5 -51q0 -20 -8 -38.5t-20 -36.5t-25.5 -34.5t-23.5 -31.5
q-12 -18 -37 -18q-15 0 -29.5 4t-29.5 6q13 22 30 40t30 40q-8 14 -20 29.5t-12 32.5z" />
    <glyph glyph-name="exclam" unicode="!" horiz-adv-x="261" 
d="M367 639q-18 -39 -32.5 -79.5t-31.5 -80.5l-27 -63l-27 -62q-6 -13 -14 -25.5t-13 -25.5q-4 -9 -6.5 -18.5t-6.5 -18.5q-8 -21 -17.5 -41.5t-17.5 -41.5l-96 -12q17 46 39 90.5t42 89.5l40 92l40 92l7.5 21l9.5 26.5t10.5 25t12.5 15.5q6 4 18 6.5t24.5 4l25 3zM72 139
q13 0 26.5 -5t24.5 -14t17.5 -21t6.5 -26q0 -29 -18.5 -52.5t-49.5 -23.5q-32 1 -50.5 21.5t-18.5 51.5q0 27 16.5 48.5t45.5 20.5z" />
    <glyph glyph-name="question" unicode="?" horiz-adv-x="314" 
d="M369 668q24 0 42.5 -10t31.5 -25.5t20 -36t7 -42.5q0 -23 -14.5 -47t-35 -45.5t-43 -40t-39.5 -30.5l-51 -39t-49.5 -42.5t-43.5 -48t-33 -54.5q-5 -6 -11.5 -13t-16.5 -3q-14 -5 -29 -9t-30 -4h-6.5t-6.5 1q5 23 11.5 41.5t15.5 34.5t21 31.5t28 32.5l52 52t55 49
l48 36.5t46 38.5q4 4 9.5 10.5t10.5 13.5t8.5 14.5t3.5 13.5q0 15 -11.5 26t-26.5 11q-27 0 -59 -13t-64.5 -31.5l-63.5 -37.5t-55 -31q6 26 9.5 52t10.5 52q12 16 42.5 32.5t66.5 30t71 21.5t56 8zM75 148q15 0 29 -5t25 -14.5t18 -22.5t7 -29q0 -14 -6.5 -27.5t-17 -24
t-24 -16.5t-27.5 -6q-31 0 -50 19.5t-19 49.5q0 26 11 51q8 8 25.5 16.5t28.5 8.5z" />
    <glyph glyph-name="quoteright" unicode="&#x2019;" horiz-adv-x="174" 
d="M259 684q15 0 30.5 -0.5t28 -5.5t20.5 -15.5t8 -30.5q0 -9 -8.5 -27.5t-20 -38.5t-23.5 -38t-19 -26q-21 0 -42 -0.5t-42 -3.5l-4 6l-4 6q29 39 52 80q-12 0 -24 0.5t-24 3.5q6 21 19 39.5l25 36.5q5 8 12 11t16 3z" />
    <glyph glyph-name="parenleft" unicode="(" horiz-adv-x="237" 
d="M452 750q3 1 10 1q16 0 31.5 -6.5t30.5 -11.5l-58 -77t-58 -78l-35.5 -51.5l-38.5 -59l-36.5 -60t-29.5 -53.5q-40 -82 -72 -156.5t-54 -149.5t-34 -155t-12 -173q0 -6 -2 -12t-7 -10q-20 3 -39 7t-37 13q-1 8 -1 15v14q0 110 25.5 220t68.5 216t99 206t117 189l62 89
t70 83z" />
    <glyph glyph-name="quotedblbase" unicode="&#x201e;" horiz-adv-x="424" 
d="M102 126l136 -1q-20 -32 -45.5 -61.5l-50.5 -58.5l-12 -15t-15 -18t-16.5 -15.5t-16.5 -6.5q-19 0 -37 2t-35 10l48 60q6 8 5 23.5t3 24.5q5 14 16.5 28t19.5 28zM290 121q31 3 62 2t62 2q-6 -26 -25.5 -45t-34.5 -39l-33.5 -46t-38.5 -42q-13 -3 -25.5 -5.5t-25.5 -2.5
q-22 0 -37 8q3 5 12 16.5l18.5 24.5t16.5 24t7 15q0 5 -1.5 10.5t-1.5 10.5q0 4 5.5 13.5t13 20t15 20t11.5 13.5z" />
    <glyph glyph-name="quotedblright" unicode="&#x201d;" horiz-adv-x="420" 
d="M291 685q11 1 21.5 1.5t21.5 0.5q21 0 42.5 -1t42.5 -1l-63.5 -87l-64.5 -85q-23 -6 -46 -6q-24 0 -46 6q9 21 23 39.5l29 36.5q-3 5 -5.5 11t-2.5 13q10 17 21 38t27 34zM479 685q10 0 20 0.5t20 0.5q20 0 40 -1t40 -1q-24 -40 -53.5 -77.5l-58.5 -74.5
q-9 -12 -22 -16.5t-27 -6t-28 -1.5t-27 -3q9 26 25.5 48.5t34.5 43.5l-10 6l-10 6q15 18 26 39t30 37z" />
    <glyph glyph-name="guillemotleft" unicode="&#xab;" horiz-adv-x="416" 
d="M190 319l44 -44q-36 -27 -70 -56t-70 -56q13 -17 30.5 -30l34 -26.5t31.5 -28.5t24 -35q-9 -7 -20.5 -13.5t-23.5 -6.5q-10 0 -20 8l-68.5 63t-71.5 61q3 16 19.5 29l28.5 23q35 28 66.5 56zM174 171q48 33 94.5 68.5t89.5 75.5q11 -8 24 -16t24 -16q-32 -35 -68 -63.5
t-76 -52.5q27 -30 59.5 -54.5t56.5 -57.5q-8 -11 -18.5 -22t-25.5 -14q-14 6 -25.5 19.5t-22.5 24.5q-26 29 -53 51.5t-59 44.5v12z" />
    <glyph glyph-name="guillemotright" unicode="&#xbb;" horiz-adv-x="419" 
d="M33 276q23 23 52 40q36 -42 77 -79l83 -73q-20 -13 -45.5 -32l-52 -39t-50.5 -40.5t-40 -36.5q-3 1 -11 5.5t-16 9.5t-14 10t-6 9q0 5 2.5 9.5t4.5 8.5q31 27 65 49.5l67 46.5l-59.5 54.5t-56.5 57.5zM201 272q1 8 6.5 13.5t12 9.5l13.5 8t12 9q22 -19 42 -39.5t42 -40.5
q20 -18 41.5 -34t38.5 -38q-25 -15 -47 -32.5l-45 -35.5t-43 -39.5t-45 -36.5q-15 0 -28 11.5l-24 20.5q30 36 67.5 62.5t72.5 57.5q-28 28 -59 51.5t-57 52.5z" />
    <glyph glyph-name="quoteleft" unicode="&#x2018;" horiz-adv-x="174" 
d="M270 499q-15 0 -30.5 0.5t-28 5.5t-20.5 15.5t-8 30.5q0 9 8.5 27.5t20 38.5t23.5 38t19 26q21 0 42 0.5t42 3.5l4 -6l4 -6q-29 -39 -52 -80q12 0 24 -0.5t24 -3.5q-6 -21 -19 -39.5l-25 -36.5q-5 -8 -12 -11t-16 -3z" />
    <glyph glyph-name="quotedblleft" unicode="&#x201c;" horiz-adv-x="420" 
d="M507 507q-11 -1 -21.5 -1.5t-21.5 -0.5q-21 0 -42.5 1t-42.5 1l63.5 87l64.5 85q22 6 46 6q23 0 46 -6q-9 -21 -23 -39.5l-29 -36.5q3 -5 5.5 -11t2.5 -13q-10 -17 -21 -38t-27 -34zM319 507q-10 0 -20 -0.5t-20 -0.5q-20 0 -40 1t-40 1q24 40 53.5 77.5l58.5 74.5
q9 12 22 16.5t27 6t28 1.5t27 3q-9 -26 -25.5 -48.5t-34.5 -43.5l10 -6l10 -6q-15 -18 -26 -39t-30 -37z" />
    <glyph glyph-name="A" unicode="A" horiz-adv-x="651" 
d="M626 683q19 0 31 -4.5t26 -17.5q18 -17 28 -35t14.5 -38t5 -42t0.5 -45q0 -25 -10 -65t-25.5 -87.5t-35.5 -98.5t-40.5 -97.5t-40 -85t-34.5 -61.5q-27 0 -54 0.5t-54 3.5q24 42 46.5 85.5t38.5 90.5q-69 -3 -136.5 -2.5t-135.5 -4.5q-1 -26 -3 -50.5t-2 -50.5
q0 -42 11.5 -80t16.5 -79q-58 6 -112 24q-16 77 -16 160q0 20 1.5 40t3.5 40q-35 0 -70 -0.5t-70 -2.5q9 26 23.5 48t24.5 47h112q12 21 20 44t20 44q19 32 46 68t60 72t70.5 68.5t77.5 57.5t81 39.5t81 14.5zM282 279q11 0 22 -2t22 -3q60 0 118 2t118 2q10 23 20.5 41
t15.5 42q9 38 21.5 73.5t12.5 75.5q0 9 -0.5 21.5t-3.5 23.5t-9.5 18.5t-19.5 7.5q-26 1 -47 -12t-41 -27q-74 -51 -133 -116t-96 -147z" />
    <glyph glyph-name="B" unicode="B" horiz-adv-x="684" 
d="M712 697q28 0 49.5 -11.5t36 -30.5t21.5 -43t7 -50q0 -60 -27 -107.5t-68 -88.5q-23 -23 -48.5 -38t-55.5 -29l14 -32t9.5 -28t5.5 -29.5t2 -35.5q0 -25 -7 -54t-21.5 -54.5t-36 -43t-51.5 -19.5q-18 -2 -37 -1t-38 1q-79 2 -157 -3l-4 12q18 23 26.5 38l13.5 24.5
t9.5 13.5t15 5t30.5 0.5t56 -0.5q25 0 45 3.5t33.5 13.5t21 27.5t7.5 44.5q0 26 -10 49.5t-31 39.5q-6 2 -12.5 2h-12.5q-18 0 -35 -2t-35 -1h-12.5t-12.5 2q18 27 42 48.5t46 46.5q17 -2 34 -5.5t34 -3.5h8t8 1q29 8 58 29t52.5 49.5t38 61.5t14.5 63q0 17 -7 29t-27 13
q-2 0 -4 -0.5t-4 -0.5q-13 -1 -21.5 -4t-16 -8t-14.5 -11t-16 -13q-40 -30 -82 -68.5l-83.5 -80.5l-80 -84.5l-71.5 -81.5q-23 -27 -42 -56.5l-37 -59.5l-37 -59t-41 -56q-34 -15 -70.5 -20t-73.5 -8q3 10 14.5 28.5t28 41.5l35.5 47.5l37.5 47.5l33.5 41.5t24 28.5
q13 16 29 43t32 60l32.5 69.5t30.5 71l25.5 65l19.5 51.5q4 10 7.5 20t12.5 16t22.5 12t28 11.5t29 9.5t24.5 6l-51 -115t-49 -116q33 34 68 75.5t74 79.5t82.5 67.5t92.5 40.5q5 1 9.5 1.5t9.5 0.5z" />
    <glyph glyph-name="C" unicode="C" horiz-adv-x="521" 
d="M589 701q48 0 78.5 -28.5t30.5 -77.5q0 -34 -16 -69t-41.5 -69t-59 -66.5t-68 -60.5t-67.5 -52t-59 -41q-8 -5 -16.5 -9t-18.5 -4q-27 0 -60 9t-57 20q26 17 55 31t53 33l23.5 20t24.5 20l48.5 38.5l52.5 42.5t49.5 46t38.5 48q8 14 10 29.5t2 30.5q-8 3 -16 5t-16 2
q-23 0 -42 -8t-38 -19q-55 -30 -110.5 -70t-104 -88t-87 -103.5t-59.5 -116.5q-5 -13 -5 -24q-1 -29 17 -48.5t47 -20.5q25 0 50 -2t51 -2q51 0 101.5 2t101.5 1q-6 -28 -25.5 -50t-34.5 -45q-56 -3 -112 -3.5t-112 -0.5q-43 0 -78 8t-59 27t-37 50.5t-13 79.5q0 21 8 47.5
t20 52.5t26 50.5t26 41.5q58 81 123.5 145.5t149.5 117.5q53 33 107 56.5t118 23.5z" />
    <glyph glyph-name="D" unicode="D" horiz-adv-x="586" 
d="M596 685q60 0 97.5 -37t37.5 -97q0 -29 -10.5 -62t-26.5 -65t-36 -61t-39 -50l-57 -67t-63 -60q-29 -22 -70 -49.5t-85.5 -53.5t-88 -46.5t-77.5 -29.5q-30 -8 -65 -12t-67 -4q-2 0 -7.5 2t-11 5l-10.5 5.5l-7 3.5q9 66 32 129.5l45 126.5l28 86t37 82q6 10 23 18t37 13
t40 8t32 4q-18 -32 -40.5 -80.5t-43.5 -101t-38 -103t-24 -86.5q59 14 114.5 45l106.5 62q37 23 83.5 61t88 84.5t69.5 96.5t28 97q0 13 -7.5 20.5t-18 11.5t-22.5 5t-21 1q-30 1 -58 -6.5t-57 -14.5q-77 -18 -151 -39t-149 -48q-26 -10 -51.5 -22.5t-52.5 -21.5
q0 62 24 116q11 11 26.5 17l29.5 11l113.5 36t116 33t117.5 25t118 12h11z" />
    <glyph glyph-name="E" unicode="E" horiz-adv-x="591" 
d="M586 694q21 0 42 -5.5t37.5 -17.5t26.5 -29.5t10 -41.5q0 -33 -11 -65.5t-34 -55.5q-32 -32 -69 -60t-76 -52q-23 13 -46 23t-45 21q22 19 51.5 39t57.5 41.5t51 46t32 53.5q-17 6 -35 6q-23 0 -49.5 -6.5t-52 -17t-49.5 -23.5t-42 -26q-9 -7 -20 -18t-21 -24.5
t-16.5 -27.5t-6.5 -26q0 -21 10 -38t22 -31.5l22.5 -27.5t10.5 -26q0 -11 -7 -22.5t-15 -18.5q-17 -14 -37.5 -27l-39.5 -25l-83 -55l-81 -56q106 -1 212 -0.5t212 2.5q-6 -26 -21 -49t-31 -43q-8 -10 -22 -11t-26 -1l-320 2q-21 0 -41.5 3.5t-37.5 12.5t-27.5 25t-10.5 41
q0 13 3.5 28t9.5 26q9 16 40 42t67.5 53.5t72 51.5l53.5 36q-7 18 -14 30t-12 23t-8 25t-3 37q0 39 18 74t47.5 63.5t67.5 51t79 38.5t81 24t74 8z" />
    <glyph glyph-name="F" unicode="F" horiz-adv-x="619" 
d="M200 678l568 -3q-7 -26 -16.5 -50.5t-24.5 -44.5q-39 0 -78 2t-78 2q-10 -22 -17.5 -44t-18.5 -44q-20 -41 -35.5 -83.5t-33.5 -83.5l116 -1q-6 -26 -17 -51t-23 -49q-30 0 -60 2.5t-60 2.5l-46 -101.5l-43 -102.5l-4.5 -11t-7.5 -9q-4 -2 -19.5 -4.5t-34 -4.5l-35.5 -4
t-23 -3q20 62 48.5 121t52.5 119q-26 3 -52 3.5t-52 0.5q9 24 20 48t20 48q17 0 33.5 -1t33.5 -1q4 0 17 0.5t16 1.5q10 4 17 19.5l11 24.5l47 103t42 105q-70 3 -140 3.5t-140 1.5q-7 0 -16.5 -2t-18.5 -5.5t-15 -9.5t-6 -15q0 -16 9 -30t21.5 -27l25.5 -26t20 -26
q-26 -9 -52 -15l-52 -12l-30.5 33.5t-28.5 37t-21.5 40.5t-8.5 44q0 17 8 29.5t21 23.5q32 30 75.5 39t85.5 9z" />
    <glyph glyph-name="G" unicode="G" horiz-adv-x="516" 
d="M611 744q18 0 34.5 -6.5t29 -17.5t19.5 -27t7 -35q0 -36 -20 -74.5t-48.5 -75t-60 -69l-55.5 -57.5l-51.5 12l-51.5 12q22 28 47 54l49 52.5t45 55.5t35 62l-5 5t-3 7q-62 -6 -119.5 -37.5t-104.5 -70.5l-56.5 -46.5t-51.5 -52.5l-43.5 -56t-46 -67.5t-36.5 -71
t-15 -66.5q-1 -32 15.5 -50t49.5 -18q30 0 57 13t54 24l31.5 13t27 13.5t23 19t18.5 29.5q4 8 6.5 18t5.5 19t8.5 16.5t15.5 10.5q38 14 80.5 23.5t83.5 12.5q-21 -42 -47.5 -77.5t-56.5 -70.5q-15 -18 -24 -40t-17 -44q-20 -54 -45.5 -102l-54.5 -98q-12 -19 -25.5 -32.5
t-27.5 -30.5q-15 -19 -24 -41.5t-28 -38.5q-28 3 -56 7t-56 1l-4 8q51 51 94 108t79 120l26 43t22 44q-26 -9 -48 -23t-48 -24q-24 -9 -49 -15.5t-51 -6.5q-35 0 -60 13t-41.5 35t-24 50t-7.5 60q0 54 23 112.5t58 113t77 103t81 83.5q28 25 63.5 50.5t74 47t78.5 38
t77 23.5q17 3 34 7t34 3z" />
    <glyph glyph-name="H" unicode="H" horiz-adv-x="581" 
d="M780 770q-21 -59 -47.5 -115.5t-49.5 -115.5q-26 -67 -55 -132.5l-58 -131.5q-18 -41 -34 -82t-35 -81q-19 -43 -35.5 -86.5t-36.5 -85.5q-3 -6 -6.5 -11.5t-9.5 -8.5t-22 -7.5t-34 -8.5l-35 -7.5t-25 -4.5l62 146l63 146q-42 3 -84 3.5t-84 0.5q-13 -34 -29.5 -68
t-27.5 -67q-5 -12 -7.5 -21.5t-18.5 -11.5q-2 0 -3 0.5t-3 0.5q-26 -10 -52 -18t-52 -14q3 8 4 16t4 16q14 41 36.5 84t40.5 84q-34 0 -68 -0.5t-68 -3.5q3 6 13 22t22 33t23.5 30t17.5 15q9 3 27 2t36 -0.5t31.5 5t13.5 17.5l34 77l34 76q8 19 14.5 37.5t14.5 36.5
q12 26 22.5 56t29.5 52q27 12 55.5 17.5t57.5 14.5q0 -3 2.5 -4.5t4.5 -3.5q-33 -66 -60.5 -133l-56.5 -135q-12 -29 -25 -57t-19 -59h144q6 0 12 0.5t12 3.5q12 22 18 46t18 45q13 23 22 46t19 46l97 240q4 9 11.5 20t16.5 16q8 4 22 7.5t30 6.5t31 5t25 4z" />
    <glyph glyph-name="I" unicode="I" horiz-adv-x="640" 
d="M669 705q36 0 58.5 -26t22.5 -61q0 -17 -10.5 -51.5t-25 -73.5l-29 -74.5t-22.5 -53.5l-47 -111.5t-58 -105t-80 -83.5t-112 -47q-33 -6 -67.5 -8l-68.5 -4q-110 -3 -220 -3q9 30 29 53.5t35 50.5q51 0 101.5 1t101.5 1q45 0 79.5 9t70.5 36q26 19 42.5 39.5t29 43
t22.5 47.5l22 53l46 105.5l43 106.5q1 9 3.5 18t2.5 18q0 12 -10 16q-22 0 -44.5 -8.5t-43.5 -21.5t-40.5 -28.5l-35.5 -28.5q-9 -8 -27.5 -26t-37.5 -38.5t-33.5 -40.5t-14.5 -31q0 -29 15.5 -55t32.5 -49l-38 -42l-38 -42q-26 42 -47.5 88t-21.5 97q0 13 2.5 28t7.5 27
q11 28 34 58t53 59t65.5 55t72 46.5t71.5 34.5t65 18q11 2 22 3t22 1z" />
    <glyph glyph-name="J" unicode="J" horiz-adv-x="575" 
d="M600 702q35 -1 56 -23t20 -57q0 -18 -12.5 -56t-32 -87.5l-43 -105l-46 -106l-41 -92.5t-26.5 -64q12 -3 24 -3.5t24 -0.5l22.5 -51.5t17.5 -52.5q-51 12 -104 12q-8 0 -17.5 -3t-14.5 -9t-10 -18t-10 -25.5t-10.5 -26.5l-9.5 -22q-24 -44 -47 -81.5t-53 -64.5
t-69.5 -42.5t-96.5 -15.5q-20 0 -40 7t-35.5 19t-25.5 29.5t-10 39.5q0 43 31 82t74.5 71.5t90.5 58l81 42.5q12 6 24.5 10t23.5 9t19.5 13t12.5 23q11 35 27.5 66.5t29.5 65.5q7 18 19.5 47l27.5 62.5l30.5 69.5l28.5 68.5t21.5 59t9.5 41.5q-18 -1 -45 -10t-57.5 -23
t-62 -31.5t-58 -37t-45.5 -39.5t-24 -38q-4 -9 -4.5 -20.5t-0.5 -21.5q0 -28 5.5 -55t13 -53.5t16.5 -53t17 -52.5l-52 17.5t-52 18.5q-14 5 -17 18t-7 26q-11 35 -16 75.5t-5 76.5q1 54 26.5 93.5t67.5 70.5q39 28 75.5 51t74.5 41t78.5 31.5t88.5 23.5q12 3 22 3z
M106 -192q21 -8 40 -8q31 0 57 17t47 42.5t35.5 56t21.5 56.5q-21 -9 -52 -28t-61.5 -42t-55 -47.5t-32.5 -46.5z" />
    <glyph glyph-name="K" unicode="K" horiz-adv-x="566" 
d="M385 695q6 0 16 -2q-39 -77 -69 -157.5t-65 -158.5l-79 -184.5l-74 -186.5h-104q6 32 18.5 59.5l25.5 56.5l79.5 187.5l78.5 187.5q17 38 31.5 77t32.5 75q5 9 8.5 13.5t7.5 7t10 3.5t15 4q17 5 34 11.5t34 6.5zM644 632q22 0 43.5 -4t44.5 -4q4 -4 4 -12l-196.5 -181.5
l-196.5 -181.5l94 -119.5t93 -121.5q-20 1 -40.5 0t-40.5 -1q-11 0 -21.5 0.5t-21.5 1.5l-74 90.5l-73 90.5q-10 13 -17.5 27.5t-7.5 31.5q0 9 2 15t7 14q12 21 28.5 38t34.5 32l37 29.5t37 31.5l65 64l66 64l46.5 39.5l46.5 39.5q11 9 18.5 12.5t21.5 3.5z" />
    <glyph glyph-name="L" unicode="L" horiz-adv-x="684" 
d="M690 690q41 0 66.5 -22t25.5 -64q0 -30 -15.5 -70.5t-38 -81t-48.5 -75.5t-48 -55q-24 -5 -48.5 -9t-49.5 -4h-11t-11 2l61.5 78t59.5 81q18 26 28.5 54t19.5 58l-12.5 4t-12.5 2q-5 0 -11 -2q-48 -17 -84.5 -54.5t-64.5 -84.5t-48 -97.5l-36 -94.5q-14 -41 -33.5 -78.5
t-35.5 -77.5l108 4t109 1q31 0 64.5 0.5t62.5 -10.5q-15 -24 -32 -46t-32 -46q-43 2 -86 3t-86 1q-87 0 -172 -3q-54 -56 -122 -95t-147 -48q3 23 14.5 49.5t22.5 46.5q15 28 32.5 44t38 26.5t44 18.5t49.5 19q12 5 15.5 11t8.5 17l36.5 69.5t32.5 71.5l53 133.5t64 128.5
q20 32 46 62.5t56.5 56t65.5 44.5t73 28q7 2 13.5 3t14.5 1z" />
    <glyph glyph-name="M" unicode="M" horiz-adv-x="814" 
d="M661 699l-35.5 -92.5t-33.5 -94.5q-6 -18 -11 -36.5t-12 -36.5l-31.5 -81t-26.5 -82l89 105.5l88 105.5l70 84l70 84q12 13 26.5 20t30 10.5t32 4.5t32.5 4q-13 -36 -31 -68.5t-34 -66.5l-52 -110t-50 -111t-44 -113.5t-32 -117.5q23 -3 46 -4t46 -4q-9 -22 -19 -43
t-21 -41q-8 -6 -17.5 -8t-19.5 -2q-25 0 -46 2.5t-36.5 11.5t-24.5 26.5t-9 47.5q0 32 13 73t30 84t35 84t29 73q-21 -17 -35 -38.5t-30 -41.5l-217 -275q-10 -13 -17 -27t-23 -21q-18 1 -36 1.5t-36 3.5q9 30 23 58t25 58q17 48 38.5 93.5t38.5 93.5q10 29 23.5 57.5
t17.5 58.5q-19 -22 -47 -59.5l-61.5 -81.5l-69.5 -90.5l-69.5 -87.5t-62.5 -72t-48 -44q-20 -2 -40.5 -3.5t-40.5 -1.5q-9 0 -17.5 0.5t-17.5 1.5q15 23 33.5 43.5l36.5 41.5q8 9 15 19t15 19l34 37l34 36l92.5 110l89.5 113l79 109l77 110q7 10 12 18.5t10.5 16t13.5 13
t21 8.5q22 6 43.5 9.5t44.5 5.5z" />
    <glyph glyph-name="N" unicode="N" horiz-adv-x="716" 
d="M809 708l14 -20l20.5 -29.5t18 -29.5t7.5 -20q0 -11 -4 -20t-9 -17l-60 -120.5t-66 -116t-74.5 -110.5t-85.5 -104l-31 -35t-41 -41.5t-44.5 -35t-40.5 -14.5q-14 0 -22 10t-11.5 23.5t-4 28.5t-0.5 26q0 41 6.5 81.5t15 80.5l17 79.5t14.5 80.5q-21 -26 -38 -55t-35 -56
q-69 -110 -151 -211l-20.5 -27.5t-21.5 -25.5q-9 -10 -18.5 -18.5t-23.5 -10.5t-29 -0.5t-29 1.5q-13 0 -26 1t-26 4q87 80 158.5 173t138.5 190q51 71 93 146t89 149q31 9 61.5 15.5t62.5 12.5q-26 -60 -51 -128t-44.5 -138.5t-32 -141.5t-14.5 -136q37 26 63.5 63l52.5 73
q30 41 56.5 84t49.5 89q9 17 17 35t18 35q25 45 45 88t36 92z" />
    <glyph glyph-name="O" unicode="O" horiz-adv-x="646" 
d="M443 683q39 0 76.5 -14.5t68.5 -39.5t52 -59t28 -73h60q6 -26 9.5 -52t5.5 -52q-14 0 -27.5 1t-27.5 1q-7 0 -14.5 -0.5t-14.5 -1.5q-11 -46 -32 -93t-51.5 -92t-68 -84.5t-81 -68.5t-92 -46t-98.5 -17q-53 0 -94.5 19.5t-71 52.5t-44.5 77.5t-15 94.5q0 27 4 50t11.5 45
t17 43.5l20.5 44.5q29 66 77.5 113.5t106.5 86.5q33 23 71.5 36t77.5 23q11 3 23 4t23 1zM106 239q0 -29 8.5 -54.5t25 -44.5t40 -30t54.5 -11q55 0 107.5 26.5t96 69t74.5 94t43 101.5q-17 2 -32.5 5t-27.5 9.5t-19.5 19.5t-7.5 35q0 29 16 57t28 54q-31 14 -64 14
q-46 0 -92 -20.5t-87 -53t-74 -72.5t-52 -79q-14 -29 -25.5 -58t-11.5 -62z" />
    <glyph glyph-name="P" unicode="P" horiz-adv-x="700" 
d="M691 688q29 0 48.5 -12.5t31 -32t16.5 -44t5 -48.5q0 -46 -18.5 -104.5t-49.5 -113.5t-71.5 -99.5t-85.5 -62.5q-20 -8 -43.5 -12.5t-48.5 -7t-49.5 -3.5t-45.5 -1q-11 0 -20.5 12t-18 28t-15 32t-11.5 25q-26 -21 -41.5 -53t-34.5 -59q-23 -30 -39.5 -63t-41.5 -60
q-8 -2 -25.5 -5t-36 -6.5t-35 -6t-23.5 -2.5q-8 0 -14.5 0.5t-13.5 3.5l50.5 77.5t54.5 74.5l50.5 65t41.5 70q16 37 33.5 73.5t33 73t28 74.5t18.5 79h-84l-16.5 46t-14.5 46q46 10 96 10q22 0 43 -2t37 -9.5t25 -24t9 -44.5q0 -22 -6 -43t-13.5 -41l-15.5 -40.5t-12 -41.5
l40.5 44l50.5 54t56.5 55.5t60 49.5t59.5 35.5t56 13.5zM323 248q47 0 86.5 3t85.5 8q23 3 43 11t37 25q18 18 38 47t36 61.5t26.5 65t10.5 58.5q0 15 -5 28.5t-17 23.5q-26 -7 -56.5 -27.5t-63.5 -50t-65.5 -64.5l-62 -69.5t-54 -66t-39.5 -53.5z" />
    <glyph glyph-name="Q" unicode="Q" horiz-adv-x="667" 
d="M521 724q49 0 89.5 -16t69 -44.5t44.5 -69t16 -89.5q0 -60 -23.5 -117t-61 -107t-86 -90t-98.5 -66q-20 -10 -39.5 -17t-37.5 -19q8 -1 16 -1h16q49 0 98 6t98 6q8 0 15.5 -12.5t13.5 -29t10 -32t5 -22.5q-99 3 -196 4t-196 1q-35 0 -67 -9.5t-64.5 -21.5l-65 -23
t-67.5 -13q3 7 12.5 20.5l22 30l27 34t28 32t24.5 24t18 11.5q10 2 29 1.5t30 -0.5q14 0 28.5 1t28.5 5q100 34 179 96t142 143q27 35 46 82t19 92q0 34 -13 56.5t-34.5 36.5t-49 20t-56.5 6q-37 0 -75 -20t-70 -50.5t-56 -67.5t-34 -70q-6 -20 -10.5 -42.5t-4.5 -43.5
q0 -28 7.5 -49t21.5 -37.5t33.5 -29t43.5 -22.5q-31 -37 -68 -68q-32 18 -57.5 37t-43.5 42t-28 53t-10 69q0 19 3.5 36.5t8.5 35.5l16 59.5t24 56.5q55 92 136.5 147.5t192.5 54.5z" />
    <glyph glyph-name="R" unicode="R" horiz-adv-x="722" 
d="M236 692q0 6 4 12.5t11 6.5q4 0 10 -4q34 0 71 -0.5t69 -8.5q24 -6 32.5 -26t7.5 -42q0 -22 -6 -43t-14 -42l-16 -41.5t-13 -41.5l41 41.5t52.5 51t59.5 52.5t62 47t60 34t54 13q30 0 50.5 -13.5t33 -34.5t18.5 -47t6 -51q0 -64 -24 -121.5t-62 -108.5
q-39 -53 -93.5 -84.5t-118.5 -42.5q20 -23 36.5 -48.5t30.5 -52.5q5 -1 15 -1q12 0 23.5 1t23.5 1q20 0 34 -5q9 -24 19 -47t13 -49h-41h-53.5t-52.5 1t-37 4q-11 2 -17 14.5t-11 21.5q-21 41 -45 75t-58 65q-24 9 -49.5 7.5t-50.5 5.5q20 28 45.5 50t54.5 41q16 2 32 1
t32 -1q48 0 95 23t84.5 60.5t60.5 84.5t23 94q0 14 -4 26.5t-14 22.5q-5 2 -9 3t-9 1q-27 0 -63.5 -24t-74 -56.5t-70 -66l-50.5 -52.5l-82.5 -85t-74.5 -90q-6 -9 -16.5 -26.5l-23.5 -39.5l-27.5 -45.5t-28.5 -43t-26 -33.5t-19 -16q-33 -11 -67 -15.5t-69 -3.5q6 18 26 50
t44.5 66.5l48.5 66l38 48.5q61 76 102.5 159.5t70.5 175.5q3 10 3 20q0 11 -3 20q-15 5 -28 5t-26 -2t-26 -2q-2 5 -6 17.5l-8 26t-7 25.5t-3 16z" />
    <glyph glyph-name="S" unicode="S" horiz-adv-x="487" 
d="M591 706q35 0 52.5 -22t16.5 -54q0 -30 -18.5 -67.5t-44 -75.5t-53.5 -72l-47 -56h-120q15 23 40.5 54l50.5 64t45 65t25 56h-10q-18 0 -44.5 -7t-55.5 -19.5t-58 -29t-52 -36t-37.5 -40.5t-14.5 -42q0 -15 11.5 -32.5t29.5 -36.5l38.5 -40.5t38.5 -44t30 -46.5t12 -49
q0 -20 -6.5 -40t-17 -39t-24.5 -35t-30 -26q-14 -9 -31 -14.5t-35 -8.5t-36 -3.5t-34 -0.5q-82 0 -164 -2t-164 -1q12 27 28 51l32 49l260 -1q15 0 34.5 2.5t36.5 9.5t29.5 19t12.5 32q0 18 -12.5 36t-30.5 37t-39.5 39t-40 42t-30.5 46.5t-12 51.5q0 17 5 33.5t13 31.5
q29 50 77 91t105.5 70t119.5 45t119 16z" />
    <glyph glyph-name="T" unicode="T" horiz-adv-x="440" 
d="M542 724q-3 -17 -8.5 -34l-11.5 -34q38 3 74.5 8.5t73.5 10.5l1 -9q0 -9 -3.5 -22.5t-8.5 -27.5t-11 -26.5t-11 -18.5q-7 -8 -15 -8t-17 -3l-62 -6l-62 -6q-6 -3 -11.5 -6.5t-8.5 -9.5q-8 -15 -14.5 -34l-12.5 -36l-30.5 -75l-31.5 -75q-12 -26 -22.5 -53l-21.5 -54
q-17 -42 -38 -83t-35 -85q-4 -11 -7 -21t-17 -15q-25 -8 -53.5 -10.5t-54.5 -5.5q45 113 95.5 222t94.5 222q9 24 20 48t20 48l-80 -9t-87 -11t-86.5 -13t-78.5 -14q-4 5 -7.5 12t-3.5 13q0 7 5 18.5t12.5 24t15.5 22.5t14 14q55 9 109.5 16.5l109.5 15.5q26 4 52.5 6.5
t52.5 7.5q15 3 20.5 14.5t9.5 24.5t10 25t21 16q24 7 49.5 11.5t50.5 4.5z" />
    <glyph glyph-name="U" unicode="U" horiz-adv-x="575" 
d="M156 718q11 0 22 -4t21 -7q38 -12 63 -42.5t25 -72.5q0 -31 -12.5 -71t-31.5 -84t-40.5 -88.5l-40.5 -84.5t-31.5 -73.5t-12.5 -54.5q-1 -13 8.5 -24.5t23.5 -11.5q15 0 35.5 10t41 24.5t38 29.5t28.5 26q12 12 27.5 29.5t31 37t29 39t20.5 34.5q16 33 29.5 66.5l27 66.5
t29 65.5t35.5 64.5q5 8 10.5 19l11.5 22t14 19.5t17 11.5q11 4 27 7.5t33 6.5t33.5 5t28.5 2q3 0 6.5 -0.5t7.5 -0.5q-8 -29 -21.5 -50t-27.5 -46q-8 -13 -13.5 -27t-12.5 -28l-41.5 -76t-45.5 -73q-21 -32 -41 -58.5t-31 -64.5q-9 -32 -17 -64.5t-8 -65.5q0 -12 14 -18
t33 -8t37.5 -1.5t27.5 0.5q-13 -25 -24 -50t-24 -49q-12 0 -24 -0.5t-24 -0.5q-24 0 -45 2t-36.5 10t-24.5 24.5t-9 46.5q0 14 2 27t2 27l-47.5 -49.5t-54 -46.5t-60.5 -34.5t-67 -13.5q-25 0 -46.5 9.5t-37.5 25.5t-25 37.5t-9 46.5q1 39 14 80.5t29 77.5l59 126.5
t50 129.5q5 17 5 30q0 14 -5 27.5t-16 22.5l-72 12q4 8 14 24t22.5 31.5t24.5 27.5t21 12z" />
    <glyph glyph-name="hyphen" unicode="-" horiz-adv-x="418" 
d="M119 315h293l-32 -84h-293z" />
    <glyph glyph-name="zero" unicode="0" horiz-adv-x="490" 
d="M312 554q45 0 82.5 -16t64.5 -43.5t41.5 -65.5t14.5 -83q0 -63 -23 -125t-63.5 -111.5t-97 -80t-122.5 -30.5q-34 0 -67 11t-60 31t-46 48.5t-23 63.5q-3 24 -3 48q0 34 7.5 71.5t21.5 74t34 69.5t45 57q18 16 41 31t49 26t52.5 17.5t51.5 6.5zM95 190q0 -8 2.5 -18
t7 -20.5t10 -19.5t10.5 -15q14 -15 37.5 -22t41.5 -7q41 0 75 17.5t60 45t44.5 62.5t29.5 70q5 16 8 30.5t3 31.5q1 54 -29 86.5t-85 32.5q-53 0 -90.5 -24t-62.5 -62t-39.5 -84t-20.5 -89q-2 -10 -2 -15z" />
    <glyph glyph-name="V" unicode="V" horiz-adv-x="383" 
d="M237 686q5 0 10.5 -0.5t10.5 -1.5l-54.5 -162.5t-47.5 -164.5q-10 -42 -22 -83.5t-18 -84.5q26 14 47 37.5l41 45.5q83 93 156.5 191t137.5 204q5 8 10 12.5t15 4.5q26 0 52 -1t51 -4q-9 -21 -23 -39t-26 -37q-84 -129 -175.5 -251t-205.5 -228l-38 -35.5t-39 -36
t-42 -32t-46 -23.5q-5 10 -13 20t-8 22q1 149 35 291t80 283q5 15 9.5 36t15.5 32q5 5 16.5 3.5t16.5 -1.5q14 0 27 1.5t27 1.5z" />
    <glyph glyph-name="one" unicode="1" horiz-adv-x="249" 
d="M332 549q-57 -131 -108.5 -262t-109.5 -262l-42 -8t-43 -4h-9.5t-9.5 1q31 65 58 131l55 132l35 78.5t30 81.5q-29 -6 -58 -14t-58 -17l-11.5 35.5t-8.5 36.5q10 3 33 9l52 14l60.5 16.5l59 15.5t48 11.5t27.5 4.5z" />
    <glyph glyph-name="two" unicode="2" horiz-adv-x="534" 
d="M441 549q29 0 54.5 -9t45 -26t30.5 -40.5t11 -53.5q0 -27 -8.5 -51.5t-22 -47t-30.5 -43.5t-34 -39q-40 -43 -89 -73.5l-99 -61.5q13 -1 25.5 -1h24.5q51 -1 101 1.5t101 2.5q-10 -24 -25 -44t-24 -44l-300 1q-21 0 -41 -6.5t-40.5 -14.5t-41 -14.5t-42.5 -6.5
q-14 0 -27 3q2 5 16 23.5l30.5 39.5l31 38t19.5 19q14 7 30 5t30 6l87 49.5t81 58.5l44 37t50 47t41 52t17 53q0 24 -19.5 37.5t-42.5 13.5q-36 0 -70 -13.5t-66 -33.5t-61.5 -44l-56.5 -45q1 25 4 54.5t9 53.5q3 12 11 18.5l17 13.5q25 17 52.5 32.5t56.5 27.5t59.5 18.5
t60.5 6.5z" />
    <glyph glyph-name="three" unicode="3" horiz-adv-x="446" 
d="M326 539q25 0 53.5 -5.5t52 -18t39 -34t15.5 -52.5q0 -19 -7 -43t-17 -41q-6 -11 -17 -20.5t-24 -17t-26.5 -14t-24.5 -12.5q32 -17 50 -48.5t18 -67.5q0 -45 -22.5 -75.5t-56 -49.5t-74 -26.5t-77.5 -7.5q-14 0 -38.5 2t-51 5t-50 7.5t-35.5 9.5q-10 23 -12.5 48
t-10.5 48q26 -4 49 -8.5t46 -8t46.5 -5.5t50.5 -2q15 0 39 1.5t47 8t39.5 18.5t16.5 33q0 16 -10 26q-11 25 -35.5 36t-53.5 14t-59 2t-52 1q9 26 20.5 50.5l23.5 49.5q18 -2 36 -3.5t36 -1.5q17 0 40.5 4t45 14t36.5 25.5t15 38.5q0 11 -10.5 17t-25 9t-29.5 3.5t-23 0.5
q-40 1 -79 -6.5t-77 -16.5q6 25 16 47.5t24 44.5q6 11 13.5 11t18.5 1q28 2 55 5.5t56 3.5z" />
    <glyph glyph-name="four" unicode="4" horiz-adv-x="487" 
d="M459 539l29.5 4t29.5 2q7 0 13 -0.5t12 -1.5q0 -7 4 -8q-23 -47 -42 -95l-39 -96l-16 -38.5l-16 -38.5q-4 -11 -6.5 -22t-5.5 -22h80l-36 -84h-80q-14 -32 -25 -63.5t-28 -60.5q-26 -6 -52 -9l-52 -6l34 68t27 72q-47 0 -93.5 -1t-93.5 -1t-93 3q9 28 20.5 54.5
t35.5 44.5l197 148.5zM403 403q-28 -15 -48.5 -35.5t-44.5 -40.5q-34 -29 -72 -52.5t-72 -54.5l136 -1q9 3 18 3t14 9q4 6 6.5 14.5t5.5 16.5q14 35 30.5 69.5t26.5 71.5v0z" />
    <glyph glyph-name="five" unicode="5" horiz-adv-x="441" 
d="M235 537l268 -1q-6 -24 -16 -46l-20 -45q-35 0 -69.5 1t-69.5 1q-17 0 -34.5 -0.5t-34.5 -1.5q-9 -30 -24 -57.5t-25 -57.5q26 2 51.5 7.5t51.5 5.5q13 0 29 -2.5t31.5 -8t29.5 -13.5t23 -18q9 -11 13 -30.5t4 -33.5q0 -54 -26 -91t-68 -69q-57 -43 -122.5 -57.5
t-135.5 -14.5q-33 0 -48 2.5t-20.5 12.5t-6.5 30t-6 56l56 -4t56 -2q60 0 110.5 19t93.5 62q15 15 17.5 27.5l6.5 32.5q-31 14 -69 14q-40 1 -78.5 -10t-76.5 -19q-6 16 -13 31.5t-7 32.5q0 4 6.5 19l15 33l16.5 34l11 22q13 31 24 62t24 62q5 12 12.5 14t19.5 1z" />
    <glyph glyph-name="six" unicode="6" horiz-adv-x="391" 
d="M344 583q26 0 50.5 -5t49.5 -11q-17 -29 -45 -52t-51 -48q-29 -32 -62 -59.5t-59 -64.5l21 2t21 1q51 0 79 -27.5t28 -78.5q0 -42 -21 -86t-55 -80t-76.5 -58.5t-85.5 -22.5q-29 0 -52.5 10t-40 27.5t-25.5 41.5t-9 53q0 51 29 108t71 111.5t88.5 102.5t80.5 80
q16 15 29.5 31t34.5 25zM99 144q0 -27 7 -43.5t39 -16.5q27 0 51.5 14t44 36t31 48.5t11.5 52.5q0 22 -18.5 34.5t-38.5 12.5q-5 0 -9.5 -0.5t-9.5 -1.5q-25 -6 -41 -23t-31 -37q-11 -16 -23.5 -36t-12.5 -40z" />
    <glyph glyph-name="seven" unicode="7" horiz-adv-x="321" 
d="M60 534q18 -1 36 -1h35q77 0 152.5 3t152.5 5q-6 -26 -21.5 -45l-30.5 -39q-63 -85 -121.5 -173.5t-103.5 -185.5q-8 -17 -15 -35t-18 -33q-29 -10 -58 -18t-58 -14q12 38 32 74.5t37 73.5q18 40 40.5 77.5t47.5 74.5l49.5 73.5l47.5 73.5q-61 1 -122 -1t-122 -2
q6 25 16.5 47.5t23.5 44.5z" />
    <glyph glyph-name="eight" unicode="8" horiz-adv-x="411" 
d="M301 544q29 0 56.5 -8.5t49 -24t34.5 -39.5t13 -56q0 -29 -10.5 -50.5t-27 -38.5t-38 -29.5t-44.5 -22.5q20 -23 29.5 -51.5t9.5 -57.5q0 -42 -16 -72t-42.5 -49.5t-61 -28.5t-72.5 -9q-36 0 -71.5 8t-63.5 25.5t-45 46.5t-17 71q0 31 13.5 59.5t36 49.5t52 33t60.5 12
q-12 20 -21.5 42t-9.5 46q0 37 17 64t44 45t60 26.5t65 8.5zM271 464q-12 0 -25 -5.5t-24.5 -14.5t-19 -21t-7.5 -24q0 -16 7 -27t18.5 -17.5t25 -9t26.5 -2.5q16 0 33.5 4.5t31.5 13.5t23.5 22.5t9.5 32.5q0 8 -3 13t-8 10q-20 19 -41 22t-47 3zM70 157q0 -18 8.5 -29.5
t22 -19t29.5 -10.5t30 -3q20 0 42.5 3t41.5 12t31.5 25t12.5 42q0 20 -9.5 33t-24 21t-31.5 11t-33 3q-21 0 -42 -4.5t-38.5 -15t-28.5 -27.5t-11 -41z" />
    <glyph glyph-name="nine" unicode="9" horiz-adv-x="401" 
d="M294 590q69 -1 102 -37.5t33 -103.5q0 -39 -19 -82.5t-46.5 -86.5t-59 -81t-57.5 -65l-65.5 -69.5t-71.5 -62.5q-5 -2 -11 -2h-11q-20 0 -39 5l-39 10q6 17 21 29.5t27 26.5q39 42 81.5 80.5t75.5 86.5q-12 -2 -24 -3t-24 -1q-56 1 -79.5 30.5t-23.5 82.5q0 43 19.5 86.5
t51 78.5t73 56.5t86.5 21.5zM160 348q0 -21 13.5 -36t35.5 -15q23 0 46 15.5t41 39t29.5 50t11.5 47.5q0 23 -11 35.5t-34 12.5q-28 0 -52 -13.5t-41.5 -35t-28 -48t-10.5 -52.5z" />
    <glyph glyph-name="W" unicode="W" horiz-adv-x="648" 
d="M160 678q33 12 68 12q20 0 36 -4q-52 -127 -86.5 -258t-55.5 -266q23 13 52.5 42t59.5 63t56.5 67l44.5 56q16 21 27 44.5t19 47.5t15 49t15 50l37 108h104q-25 -78 -47 -155.5t-42 -156.5q-12 -46 -25 -91t-16 -93q24 20 57 56.5l70.5 82t75.5 96.5l71.5 99.5t60 90.5
t39.5 70q30 0 60 -1t60 -4q-16 -37 -39.5 -69.5l-45.5 -65.5q-42 -65 -86.5 -127t-95.5 -121q-17 -21 -35 -40l-36 -39l-51 -56t-68 -69.5t-71.5 -61t-62.5 -32.5q-11 15 -15.5 32.5t-4.5 35.5q1 48 12.5 96t16.5 96q-24 -21 -41.5 -47t-38.5 -49q-8 -9 -24 -24.5t-36.5 -33
l-43.5 -36t-44.5 -33t-39.5 -24t-29 -9.5q-2 0 -4 0.5t-4 0.5q-11 9 -15 22.5t-4 27.5q0 55 12.5 129.5t31 153t40.5 152t41 126.5q6 15 9.5 31.5t15.5 28.5z" />
    <glyph glyph-name="X" unicode="X" horiz-adv-x="672" 
d="M285 695q28 0 56 -2t56 -2l44.5 -90l42.5 -91q23 9 43 24t41 28l67.5 41t70.5 36.5t73.5 28.5t77.5 17q-1 -10 -3 -22t-4.5 -25t-6 -24.5t-7.5 -20.5q-8 -14 -15 -16.5l-21 -7.5q-75 -25 -139.5 -67l-128.5 -88q12 -48 29 -98l33 -101t29 -101.5t19 -99.5h-108
q-11 85 -35.5 166t-51.5 162q-27 -21 -65.5 -57l-78 -76.5t-74.5 -81t-55 -68.5l-23 -30.5t-33 -20.5q-26 -5 -54 -6.5t-54 -1.5q9 26 35 63t62 79.5t77.5 86.5l82 84l75.5 73l58 53q-15 42 -33.5 83.5t-38.5 80.5q-11 23 -23.5 44.5t-19.5 47.5z" />
    <glyph glyph-name="Y" unicode="Y" horiz-adv-x="483" 
d="M129 696q27 -2 58 -2.5t57 -8t43 -26.5t17 -58q0 -12 -8 -37t-20.5 -57t-28 -68l-30.5 -69l-27.5 -60t-18.5 -42l-14 -30l-18 -39.5t-15.5 -39t-6.5 -28.5q0 -9 5.5 -17t15.5 -8q4 0 8 2q21 -4 47.5 10.5t55 39.5t56 57t51 64.5t40.5 61t24 46.5q22 58 48.5 112.5
t51.5 111.5q12 25 26 31.5t39 11.5q31 8 59.5 18.5t60.5 13.5q-16 -39 -41 -84.5t-53 -91.5l-56.5 -90l-51.5 -81q-12 -20 -21 -41.5t-16.5 -44.5l-14.5 -46t-16 -44l-34.5 -76.5l-34.5 -75.5q-38 -84 -85 -154l-100 -145q-29 0 -58 2.5t-58 6.5q20 30 44 57.5t44 57.5
q48 70 91 139t75 149l-46.5 -40.5t-47 -37t-52.5 -27t-62 -10.5q-47 1 -74 32t-26 77q0 30 16.5 77.5t38.5 98.5t45 98.5t37 79.5q11 28 24.5 55.5t19.5 56.5q-26 9 -53.5 10.5t-54.5 1.5q7 27 20 51t25 49z" />
    <glyph glyph-name="Z" unicode="Z" horiz-adv-x="643" 
d="M666 712q25 0 49.5 -4t43 -15.5t29.5 -30.5t11 -49q0 -31 -16 -71.5t-42.5 -84t-59.5 -87.5t-67.5 -83.5t-66.5 -71t-56 -50.5l-23.5 -18.5t-20.5 -21.5l-1 -28q39 6 78 13t79 6q9 0 17.5 -12.5t16 -28.5t13 -32t8.5 -23q-48 0 -96 -1.5t-96 -13.5q1 -11 1.5 -21.5
t0.5 -21.5q0 -33 -6.5 -63.5t-28.5 -57.5q-25 -32 -60 -56t-75 -40t-82.5 -24t-81.5 -8q-20 0 -42 4t-40 13.5t-30 25.5t-12 41q0 42 25.5 77.5t62 65t77 53l71.5 41.5q25 14 51.5 21t52.5 18q-2 17 -6.5 33.5t-4.5 33.5q0 15 4.5 23.5t15.5 17.5q79 67 153.5 139t131.5 160
q14 22 30 44.5t16 49.5q0 26 -13 34t-36 8q-26 0 -53.5 -6t-55.5 -15t-54.5 -20.5l-49.5 -21.5q-72 -32 -133.5 -79t-115.5 -104q1 24 -5 47.5t-6 48.5q0 16 4 28q49 40 107.5 79.5t122.5 70.5t131 49.5t133 18.5zM113 -182q0 -4 3 -7l5 -5q12 -3 25 -3q21 0 54.5 8t67 22
t61 32.5t37.5 39.5q7 14 7 31q0 11 -1.5 20.5t-1.5 20.5q-46 -11 -90 -33.5l-86 -45.5q-23 -13 -46.5 -34t-34.5 -46z" />
    <glyph glyph-name="Adieresis" unicode="&#xc4;" horiz-adv-x="689" 
d="M337 688q23 -1 36.5 -16t13.5 -37q-1 -23 -18.5 -40.5t-40.5 -16.5q-23 0 -36.5 16t-12.5 39q0 30 15 42.5t43 12.5zM612 683q33 0 54.5 -15t34 -39t17 -52.5t4.5 -55.5q0 -46 -18 -112.5t-44.5 -136.5t-56.5 -135t-54 -107q-8 -14 -23 -14t-29 -2q-10 -1 -20 -2.5
t-20 -1.5q-16 0 -24 8q0 11 5 21t11 19q21 32 37 65l32 67q-69 0 -136 -1.5t-136 -1.5q-6 -35 -6 -69q-1 -50 7.5 -98l17.5 -97q-24 3 -50.5 7.5t-49.5 12.5q-13 5 -14 15l-2 21q-2 34 -8 67t-5 68q0 18 2.5 36.5t7.5 36.5q-34 3 -68 2.5t-68 2.5q6 17 13 34t15 34
q3 6 7.5 12t12.5 8q25 4 52 1.5t52 -2.5q20 50 48.5 99.5t64 94.5t77 83t87.5 66q38 23 83 42.5t90 18.5zM270 283q70 -1 140 0.5t140 -1.5l25 55.5t23.5 61t17.5 62.5t7 60q0 22 -7 40.5t-33 19.5q-23 0 -42.5 -11.5t-37.5 -23.5q-76 -51 -135.5 -114.5t-97.5 -148.5z
M795 686q21 0 36 -15.5t15 -36.5q0 -14 -11 -25q-6 -14 -19.5 -21t-28.5 -7q-22 0 -36 16.5t-13 37.5q0 29 16 40t41 11z" />
    <glyph glyph-name="Odieresis" unicode="&#xd6;" horiz-adv-x="661" 
d="M128 689q23 0 40 -13t17 -38q-1 -26 -13.5 -44t-41.5 -18q-23 0 -37 15.5t-13 37.5q0 21 12.5 40.5t35.5 19.5zM458 684q43 0 81.5 -17.5t67 -46.5t45 -68t16.5 -82q0 -52 -17.5 -107t-48 -106.5t-71.5 -97t-89.5 -79.5t-102 -53.5t-107.5 -19.5q-30 0 -60 9.5
t-56.5 26.5t-48.5 40t-36 50q-14 26 -17 56t-3 59q0 9 -0.5 18.5t0.5 18.5q1 14 5 30.5t10 33t13 32l13 28.5q25 55 68.5 105t97.5 88t115.5 60t124.5 22zM112 248q0 -61 37 -97t98 -36q47 0 91.5 21t82 55t67 75t47.5 81l23 52t11 55q0 57 -28.5 96t-89.5 39q-27 0 -61 -9
t-58 -21q-53 -26 -88 -60t-68 -83q-28 -41 -46 -79t-18 -89zM689 678q11 0 22.5 -4t21 -10.5t15.5 -16t6 -21.5q-1 -20 -14.5 -38t-35.5 -18q-23 0 -41.5 14.5t-17.5 39.5q0 7 4.5 15.5t11 16t14 13.5t14.5 9z" />
    <glyph glyph-name="Udieresis" unicode="&#xdc;" horiz-adv-x="578" 
d="M334 725q25 0 40.5 -16t15.5 -40q0 -23 -14.5 -40t-38.5 -17q-23 1 -37.5 15.5t-14.5 37.5q0 10 3.5 20.5t10.5 19.5t15.5 14.5t19.5 5.5zM145 721q63 -7 97.5 -43.5t33.5 -100.5q0 -23 -6.5 -47t-16 -47.5t-21 -46t-20.5 -43.5l-61 -132l-24 -56.5t-12 -59.5
q0 -15 10.5 -22t23.5 -7q19 0 39.5 9t34.5 20q19 15 44.5 39t50 50.5t45.5 53t32 48.5q7 14 19.5 43l28.5 64l33.5 73t35 70t33.5 54.5t28 27.5q29 11 63 14.5t65 8.5q-12 -38 -33.5 -81.5t-47 -87t-52.5 -84.5l-49 -74l-28 -44t-20 -48q-8 -34 -14.5 -64.5t-6.5 -65.5
q0 -11 8 -15.5t19.5 -5.5t23 0t19.5 1q10 0 20 -1t19 -5q-12 -20 -21.5 -43.5t-23.5 -40.5q-4 -5 -11.5 -7.5t-16 -3.5t-17 -1h-14.5q-20 0 -38.5 2t-33.5 9.5t-24 22t-9 38.5q1 15 3 30t2 30l-51 -44.5t-54.5 -44t-59.5 -33.5t-67 -13q-54 1 -83.5 36.5t-28.5 87.5
q0 8 -0.5 16.5t0.5 16.5q3 25 15.5 58.5t29.5 70.5l36 75.5t35 75t26.5 69t10.5 56.5q0 18 -8.5 27.5t-22 14.5t-29 7t-27.5 5l29 48t39 40zM472 716q21 0 36.5 -16.5t15.5 -36.5q0 -22 -16.5 -38.5t-38.5 -16.5q-21 0 -36.5 15t-15.5 36q0 23 15.5 40t39.5 17z" />
    <glyph glyph-name="T_h" unicode="&#xe24b;" horiz-adv-x="848" 
d="M455 674q29 6 58 10.5t58 4.5l-25 -72q67 9 133 22t132 21l-87 -206l-91 -205q18 12 36 28t36.5 30t39 23t44.5 9t37.5 -10t13.5 -36q0 -13 -8.5 -38.5t-19.5 -54t-22.5 -54.5t-17.5 -41l76 -1q-2 -4 -6 -15t-9 -22.5t-10 -21.5t-7 -13q-5 -5 -13 -5.5t-15 -2.5
q-14 2 -33.5 1t-37.5 1.5t-31 11t-13 29.5q0 17 8 40t18.5 47.5l21 48.5t16.5 42q-21 -9 -48.5 -31.5t-54.5 -49.5t-50 -55t-36 -48q-5 -8 -10.5 -19.5t-13.5 -15.5q-3 -2 -14.5 -5l-24 -6t-24.5 -5.5l-17 -3.5q26 77 60.5 150t64.5 149q15 38 32 76l33 76q9 21 19.5 41.5
t16.5 42.5q-35 -3 -70.5 -5.5t-69.5 -10.5q-14 -2 -24.5 -8t-15.5 -19l-142 -333l-33.5 -81t-34.5 -78q-4 -7 -18 -12.5t-30.5 -10t-33 -7t-24.5 -2.5q-9 0 -14 1q32 87 69.5 170.5t71.5 168.5q19 47 42 91t35 93q-28 0 -56 -4t-56 -7l-128.5 -19.5t-127.5 -23.5
q8 22 23 46.5t29 44.5q8 11 16.5 12.5l19.5 3.5q31 4 61.5 9l60.5 10l85 10t85 14l22 5t18 11q8 11 14 31t11 33z" />
    <glyph glyph-name="uacute" unicode="&#xfa;" 
d="M372 321q-6 -26 -17 -51.5t-23 -48.5q-8 -15 -17.5 -28t-18 -26.5t-14 -29t-5.5 -34.5q0 -13 10 -18.5t24 -7t28.5 -1t23.5 0.5q-5 -20 -12 -39t-16 -37q-24 0 -50.5 -0.5t-49.5 4.5q-15 3 -24.5 16.5t-19.5 23.5q-15 -7 -28.5 -15.5l-27 -16.5t-28.5 -13.5t-32 -5.5
q-10 0 -21.5 4.5t-21 12t-16 17.5t-6.5 21q0 9 6 29t15 45l20 53l22 53.5t20.5 45.5l14.5 30q20 11 42.5 12t45.5 4q-9 -32 -22 -63l-25.5 -62t-24 -62.5t-17.5 -64.5q23 10 41 22t35 30q9 9 13 18.5t7 19t5.5 19t7.5 19.5q4 9 11.5 23l15 29t15.5 28.5t14 19.5q8 9 20.5 13
t26.5 6t28 2.5t25 2.5zM304 488l111 2l-160 -143l-42 1z" />
    <glyph glyph-name="acute" unicode="&#xb4;" 
d="M391 488l111 2l-160 -143l-42 1z" />
    <glyph glyph-name="grave" unicode="`" 
d="M262 348l-42 -1l-160 143l111 -2z" />
    <glyph glyph-name="circumflex" unicode="&#x2c6;" horiz-adv-x="0" 
d="M282 490l4 3h101l2 -3l53 -122l-32 -1l-86 71l-111 -71l-30 1z" />
    <glyph glyph-name="agrave" unicode="&#xe0;" horiz-adv-x="389" 
d="M379 329q-9 -20 -19.5 -40l-20.5 -40q-46 -3 -88 -13.5t-80 -37.5q-29 -21 -52 -48t-29 -64q8 0 16.5 -0.5t17.5 -0.5q32 0 46.5 13t22 31.5t13.5 40.5t21 40q21 2 42 3t42 4q-4 -15 -10.5 -30l-12.5 -30t-10 -31t-4 -32v-9q20 -3 40 -3.5t40 -0.5q-6 -20 -14.5 -38.5
l-17.5 -37.5h-36q-17 0 -38.5 2.5t-37.5 10.5q-5 3 -8 5t-10 2q-10 0 -19.5 -4.5t-18.5 -6.5q-14 -4 -29.5 -5.5t-30.5 -1.5q-10 0 -22 0.5t-22 2.5q-12 3 -20 12t-12.5 21t-6 24.5t-1.5 22.5q0 22 11 46.5t27.5 48t35.5 43.5t35 34q25 21 57 34.5t66.5 20.5t69.5 9.5
t67 2.5zM295 348l-42 -1l-160 143l111 -2z" />
    <glyph glyph-name="aacute" unicode="&#xe1;" horiz-adv-x="389" 
d="M379 329q-9 -20 -19.5 -40l-20.5 -40q-46 -3 -88 -13.5t-80 -37.5q-29 -21 -52 -48t-29 -64q8 0 16.5 -0.5t17.5 -0.5q32 0 46.5 13t22 31.5t13.5 40.5t21 40q21 2 42 3t42 4q-4 -15 -10.5 -30l-12.5 -30t-10 -31t-4 -32v-9q20 -3 40 -3.5t40 -0.5q-6 -20 -14.5 -38.5
l-17.5 -37.5h-36q-17 0 -38.5 2.5t-37.5 10.5q-5 3 -8 5t-10 2q-10 0 -19.5 -4.5t-18.5 -6.5q-14 -4 -29.5 -5.5t-30.5 -1.5q-10 0 -22 0.5t-22 2.5q-12 3 -20 12t-12.5 21t-6 24.5t-1.5 22.5q0 22 11 46.5t27.5 48t35.5 43.5t35 34q25 21 57 34.5t66.5 20.5t69.5 9.5
t67 2.5zM272 488l111 2l-160 -143l-42 1z" />
    <glyph glyph-name="acircumflex" unicode="&#xe2;" horiz-adv-x="389" 
d="M379 329q-9 -20 -19.5 -40l-20.5 -40q-46 -3 -88 -13.5t-80 -37.5q-29 -21 -52 -48t-29 -64q8 0 16.5 -0.5t17.5 -0.5q32 0 46.5 13t22 31.5t13.5 40.5t21 40q21 2 42 3t42 4q-4 -15 -10.5 -30l-12.5 -30t-10 -31t-4 -32v-9q20 -3 40 -3.5t40 -0.5q-6 -20 -14.5 -38.5
l-17.5 -37.5h-36q-17 0 -38.5 2.5t-37.5 10.5q-5 3 -8 5t-10 2q-10 0 -19.5 -4.5t-18.5 -6.5q-14 -4 -29.5 -5.5t-30.5 -1.5q-10 0 -22 0.5t-22 2.5q-12 3 -20 12t-12.5 21t-6 24.5t-1.5 22.5q0 22 11 46.5t27.5 48t35.5 43.5t35 34q25 21 57 34.5t66.5 20.5t69.5 9.5
t67 2.5zM226 490l4 3h101l2 -3l53 -122l-32 -1l-86 71l-111 -71l-30 1z" />
    <glyph glyph-name="egrave" unicode="&#xe8;" horiz-adv-x="363" 
d="M35 104q0 45 19 86t51 73t73.5 51t85.5 19q16 0 31.5 -3.5t28.5 -11t21 -20.5t8 -31q0 -36 -20.5 -65.5t-50.5 -52.5t-65 -40t-63 -28q37 -3 74 -4t74 -1l-5.5 -26.5t-8 -23t-15.5 -16.5t-27 -6q-12 0 -31 -0.5t-39 -0.5h-38t-28 2q-39 5 -57 34.5t-18 64.5zM102 117
q24 12 49.5 26.5t49 32t41 39t25.5 49.5q-28 0 -53.5 -14.5t-47 -36t-38 -47.5t-26.5 -49zM282 348l-42 -1l-160 143l111 -2z" />
    <glyph glyph-name="eacute" unicode="&#xe9;" horiz-adv-x="363" 
d="M35 104q0 45 19 86t51 73t73.5 51t85.5 19q16 0 31.5 -3.5t28.5 -11t21 -20.5t8 -31q0 -36 -20.5 -65.5t-50.5 -52.5t-65 -40t-63 -28q37 -3 74 -4t74 -1l-5.5 -26.5t-8 -23t-15.5 -16.5t-27 -6q-12 0 -31 -0.5t-39 -0.5h-38t-28 2q-39 5 -57 34.5t-18 64.5zM102 117
q24 12 49.5 26.5t49 32t41 39t25.5 49.5q-28 0 -53.5 -14.5t-47 -36t-38 -47.5t-26.5 -49zM276 488l111 2l-160 -143l-42 1z" />
    <glyph glyph-name="ecircumflex" unicode="&#xea;" horiz-adv-x="363" 
d="M35 104q0 45 19 86t51 73t73.5 51t85.5 19q16 0 31.5 -3.5t28.5 -11t21 -20.5t8 -31q0 -36 -20.5 -65.5t-50.5 -52.5t-65 -40t-63 -28q37 -3 74 -4t74 -1l-5.5 -26.5t-8 -23t-15.5 -16.5t-27 -6q-12 0 -31 -0.5t-39 -0.5h-38t-28 2q-39 5 -57 34.5t-18 64.5zM102 117
q24 12 49.5 26.5t49 32t41 39t25.5 49.5q-28 0 -53.5 -14.5t-47 -36t-38 -47.5t-26.5 -49zM242 490l4 3h101l2 -3l53 -122l-32 -1l-86 71l-111 -71l-30 1z" />
    <glyph glyph-name="dieresis" unicode="&#xa8;" horiz-adv-x="372" 
d="M177 533q27 0 42.5 -17.5t15.5 -43.5q0 -28 -17.5 -42.5t-44.5 -14.5q-26 0 -39.5 16.5t-13.5 42.5t15 42.5t42 16.5zM332 533q27 0 42.5 -18.5t15.5 -44.5t-16.5 -40.5t-42.5 -14.5q-24 0 -40 18t-16 42q0 23 17 40.5t40 17.5z" />
    <glyph glyph-name="dotlessi" unicode="&#x131;" horiz-adv-x="209" 
d="M112 312q22 3 44 3.5t44 3.5q-23 -59 -51.5 -118.5t-47.5 -120.5q15 -3 34 -2t35 1q-6 -17 -16 -40t-19 -39q-11 -2 -19 0.5t-19 2.5q-16 0 -31.5 0.5t-28 5t-20 14.5t-7.5 30q0 30 13 59.5l25 55.5q17 36 32 72.5t32 71.5z" />
    <glyph glyph-name="edieresis" unicode="&#xeb;" horiz-adv-x="363" 
d="M35 104q0 45 19 86t51 73t73.5 51t85.5 19q16 0 31.5 -3.5t28.5 -11t21 -20.5t8 -31q0 -36 -20.5 -65.5t-50.5 -52.5t-65 -40t-63 -28q37 -3 74 -4t74 -1l-5.5 -26.5t-8 -23t-15.5 -16.5t-27 -6q-12 0 -31 -0.5t-39 -0.5h-38t-28 2q-39 5 -57 34.5t-18 64.5zM102 117
q24 12 49.5 26.5t49 32t41 39t25.5 49.5q-28 0 -53.5 -14.5t-47 -36t-38 -47.5t-26.5 -49zM218 533q27 0 42.5 -17.5t15.5 -43.5q0 -28 -17.5 -42.5t-44.5 -14.5q-26 0 -39.5 16.5t-13.5 42.5t15 42.5t42 16.5zM373 533q27 0 42.5 -18.5t15.5 -44.5t-16.5 -40.5t-42.5 -14.5
q-24 0 -40 18t-16 42q0 23 17 40.5t40 17.5z" />
    <glyph glyph-name="igrave" unicode="&#xec;" horiz-adv-x="209" 
d="M112 312q22 3 44 3.5t44 3.5q-23 -59 -51.5 -118.5t-47.5 -120.5q15 -3 34 -2t35 1q-6 -17 -16 -40t-19 -39q-11 -2 -19 0.5t-19 2.5q-16 0 -31.5 0.5t-28 5t-20 14.5t-7.5 30q0 30 13 59.5l25 55.5q17 36 32 72.5t32 71.5zM206 348l-42 -1l-160 143l111 -2z" />
    <glyph glyph-name="iacute" unicode="&#xed;" horiz-adv-x="209" 
d="M112 312q22 3 44 3.5t44 3.5q-23 -59 -51.5 -118.5t-47.5 -120.5q15 -3 34 -2t35 1q-6 -17 -16 -40t-19 -39q-11 -2 -19 0.5t-19 2.5q-16 0 -31.5 0.5t-28 5t-20 14.5t-7.5 30q0 30 13 59.5l25 55.5q17 36 32 72.5t32 71.5zM220 488l111 2l-160 -143l-42 1z" />
    <glyph glyph-name="icircumflex" unicode="&#xee;" horiz-adv-x="209" 
d="M112 312q22 3 44 3.5t44 3.5q-23 -59 -51.5 -118.5t-47.5 -120.5q15 -3 34 -2t35 1q-6 -17 -16 -40t-19 -39q-11 -2 -19 0.5t-19 2.5q-16 0 -31.5 0.5t-28 5t-20 14.5t-7.5 30q0 30 13 59.5l25 55.5q17 36 32 72.5t32 71.5zM141 490l4 3h101l2 -3l53 -122l-32 -1l-86 71
l-111 -71l-30 1z" />
    <glyph glyph-name="idieresis" unicode="&#xef;" horiz-adv-x="209" 
d="M112 312q22 3 44 3.5t44 3.5q-23 -59 -51.5 -118.5t-47.5 -120.5q15 -3 34 -2t35 1q-6 -17 -16 -40t-19 -39q-11 -2 -19 0.5t-19 2.5q-16 0 -31.5 0.5t-28 5t-20 14.5t-7.5 30q0 30 13 59.5l25 55.5q17 36 32 72.5t32 71.5zM105 533q27 0 42.5 -17.5t15.5 -43.5
q0 -28 -17.5 -42.5t-44.5 -14.5q-26 0 -39.5 16.5t-13.5 42.5t15 42.5t42 16.5zM260 533q27 0 42.5 -18.5t15.5 -44.5t-16.5 -40.5t-42.5 -14.5q-24 0 -40 18t-16 42q0 23 17 40.5t40 17.5z" />
    <glyph glyph-name="ograve" unicode="&#xf2;" horiz-adv-x="343" 
d="M199 333q44 0 69.5 -20t39.5 -61q13 -3 26 -3.5t26 -0.5q-3 -17 -6.5 -32.5t-9.5 -31.5q-10 -7 -22.5 -11.5t-17.5 -16.5q-14 -30 -26.5 -59.5t-38.5 -52.5q-20 -17 -49 -30.5t-55 -13.5q-57 0 -91 27.5t-34 87.5q0 37 14.5 76t40 70.5t60 51.5t74.5 20zM134 78
q19 0 33 8.5t25.5 22t20 29t15.5 30.5q-17 9 -26 17t-13 18t-4.5 23t-0.5 30q-40 -12 -66.5 -47t-26.5 -77q0 -23 8.5 -38.5t34.5 -15.5zM272 348l-42 -1l-160 143l111 -2z" />
    <glyph glyph-name="oacute" unicode="&#xf3;" horiz-adv-x="343" 
d="M199 333q44 0 69.5 -20t39.5 -61q13 -3 26 -3.5t26 -0.5q-3 -17 -6.5 -32.5t-9.5 -31.5q-10 -7 -22.5 -11.5t-17.5 -16.5q-14 -30 -26.5 -59.5t-38.5 -52.5q-20 -17 -49 -30.5t-55 -13.5q-57 0 -91 27.5t-34 87.5q0 37 14.5 76t40 70.5t60 51.5t74.5 20zM134 78
q19 0 33 8.5t25.5 22t20 29t15.5 30.5q-17 9 -26 17t-13 18t-4.5 23t-0.5 30q-40 -12 -66.5 -47t-26.5 -77q0 -23 8.5 -38.5t34.5 -15.5zM298 488l111 2l-160 -143l-42 1z" />
    <glyph glyph-name="ocircumflex" unicode="&#xf4;" horiz-adv-x="343" 
d="M199 333q44 0 69.5 -20t39.5 -61q13 -3 26 -3.5t26 -0.5q-3 -17 -6.5 -32.5t-9.5 -31.5q-10 -7 -22.5 -11.5t-17.5 -16.5q-14 -30 -26.5 -59.5t-38.5 -52.5q-20 -17 -49 -30.5t-55 -13.5q-57 0 -91 27.5t-34 87.5q0 37 14.5 76t40 70.5t60 51.5t74.5 20zM134 78
q19 0 33 8.5t25.5 22t20 29t15.5 30.5q-17 9 -26 17t-13 18t-4.5 23t-0.5 30q-40 -12 -66.5 -47t-26.5 -77q0 -23 8.5 -38.5t34.5 -15.5zM194 490l4 3h101l2 -3l53 -122l-32 -1l-86 71l-111 -71l-30 1z" />
    <glyph glyph-name="ugrave" unicode="&#xf9;" 
d="M372 321q-6 -26 -17 -51.5t-23 -48.5q-8 -15 -17.5 -28t-18 -26.5t-14 -29t-5.5 -34.5q0 -13 10 -18.5t24 -7t28.5 -1t23.5 0.5q-5 -20 -12 -39t-16 -37q-24 0 -50.5 -0.5t-49.5 4.5q-15 3 -24.5 16.5t-19.5 23.5q-15 -7 -28.5 -15.5l-27 -16.5t-28.5 -13.5t-32 -5.5
q-10 0 -21.5 4.5t-21 12t-16 17.5t-6.5 21q0 9 6 29t15 45l20 53l22 53.5t20.5 45.5l14.5 30q20 11 42.5 12t45.5 4q-9 -32 -22 -63l-25.5 -62t-24 -62.5t-17.5 -64.5q23 10 41 22t35 30q9 9 13 18.5t7 19t5.5 19t7.5 19.5q4 9 11.5 23l15 29t15.5 28.5t14 19.5q8 9 20.5 13
t26.5 6t28 2.5t25 2.5zM292 348l-42 -1l-160 143l111 -2z" />
    <glyph glyph-name="ucircumflex" unicode="&#xfb;" 
d="M372 321q-6 -26 -17 -51.5t-23 -48.5q-8 -15 -17.5 -28t-18 -26.5t-14 -29t-5.5 -34.5q0 -13 10 -18.5t24 -7t28.5 -1t23.5 0.5q-5 -20 -12 -39t-16 -37q-24 0 -50.5 -0.5t-49.5 4.5q-15 3 -24.5 16.5t-19.5 23.5q-15 -7 -28.5 -15.5l-27 -16.5t-28.5 -13.5t-32 -5.5
q-10 0 -21.5 4.5t-21 12t-16 17.5t-6.5 21q0 9 6 29t15 45l20 53l22 53.5t20.5 45.5l14.5 30q20 11 42.5 12t45.5 4q-9 -32 -22 -63l-25.5 -62t-24 -62.5t-17.5 -64.5q23 10 41 22t35 30q9 9 13 18.5t7 19t5.5 19t7.5 19.5q4 9 11.5 23l15 29t15.5 28.5t14 19.5q8 9 20.5 13
t26.5 6t28 2.5t25 2.5zM225 490l4 3h101l2 -3l53 -122l-32 -1l-86 71l-111 -71l-30 1z" />
    <glyph glyph-name="yacute" unicode="&#xfd;" horiz-adv-x="365" 
d="M92 284q25 12 50.5 22.5t53.5 13.5q-24 -60 -50.5 -118.5t-42.5 -121.5q26 6 47.5 25t41.5 35q17 13 27 36t18 46t17 42.5t26 26.5q26 11 53.5 16.5t54.5 11.5q-10 -26 -23.5 -48.5l-27.5 -44l-27 -42t-22 -41.5q-9 -22 -15 -46.5t-14 -47.5q-8 -28 -18 -55t-18 -55
q-13 -44 -30.5 -80.5t-42.5 -74.5q-20 -30 -48 -49.5t-60 -34.5q-23 -11 -46.5 -15.5t-49.5 -4.5q4 9 10.5 21l13.5 25t14.5 24.5t13.5 17.5q9 8 19 14t21 11t21 11.5t19 15.5q21 23 35.5 49.5t25 54.5t19 57.5l17.5 58.5q-11 -5 -24 -12.5t-27 -14.5t-27.5 -12t-25.5 -5
q-6 0 -14 3.5t-16 8.5t-14 11.5t-8 12.5q-2 5 -2.5 15t-0.5 15q0 20 7.5 51.5t18.5 64t24.5 61.5t25.5 45zM325 488l111 2l-160 -143l-42 1z" />
    <glyph glyph-name="ydieresis" unicode="&#xff;" horiz-adv-x="379" 
d="M106 284q25 12 50.5 22.5t53.5 13.5q-24 -60 -50.5 -118.5t-42.5 -121.5q26 6 47.5 25t41.5 35q17 13 27 36t18 46t17 42.5t26 26.5q26 11 53.5 16.5t54.5 11.5q-10 -26 -23.5 -48.5l-27.5 -44l-27 -42t-22 -41.5q-9 -22 -15 -46.5t-14 -47.5q-8 -28 -18 -55t-18 -55
q-13 -44 -30.5 -80.5t-42.5 -74.5q-20 -30 -48 -49.5t-60 -34.5q-23 -11 -46.5 -15.5t-49.5 -4.5q4 9 10.5 21l13.5 25t14.5 24.5t13.5 17.5q9 8 19 14t21 11t21 11.5t19 15.5q21 23 35.5 49.5t25 54.5t19 57.5l17.5 58.5q-11 -5 -24 -12.5t-27 -14.5t-27.5 -12t-25.5 -5
q-6 0 -14 3.5t-16 8.5t-14 11.5t-8 12.5q-2 5 -2.5 15t-0.5 15q0 20 7.5 51.5t18.5 64t24.5 61.5t25.5 45zM220 533q27 0 42.5 -17.5t15.5 -43.5q0 -28 -17.5 -42.5t-44.5 -14.5q-26 0 -39.5 16.5t-13.5 42.5t15 42.5t42 16.5zM375 533q27 0 42.5 -18.5t15.5 -44.5
t-16.5 -40.5t-42.5 -14.5q-24 0 -40 18t-16 42q0 23 17 40.5t40 17.5z" />
    <glyph glyph-name="bar" unicode="|" horiz-adv-x="301" 
d="M385 695q6 0 16 -2q-39 -77 -69 -157.5t-65 -158.5l-79 -184.5l-74 -186.5h-104q6 32 18.5 59.5l25.5 56.5l79.5 187.5l78.5 187.5q17 38 31.5 77t32.5 75q5 9 8.5 13.5t7.5 7t10 3.5t15 4q17 5 34 11.5t34 6.5z" />
    <glyph glyph-name="backslash" unicode="\" horiz-adv-x="349" 
d="M85 695q4 0 8.5 -0.5t9.5 -1.5q22 -77 56 -157.5t61 -158.5q32 -92 68 -184.5l74 -186.5h-104q-19 32 -28 59.5t-20 56.5l-69.5 187.5l-70.5 187.5q-14 38 -30 77t-27 75q-3 9 -3 13.5t2.5 7t7.5 3.5t12 4q12 5 24 11.5t29 6.5z" />
    <glyph glyph-name="slash" unicode="/" horiz-adv-x="301" 
d="M556 695q5 0 15 -2q-60 -77 -111 -157.5t-108 -158.5l-129 -184.5l-124 -186.5h-103q14 32 34 59.5l41 56.5l128.5 187.5l129.5 187.5q27 38 52 77t53 75q7 9 12 13.5t10 7t11 3.5t16 4q18 5 37 11.5t36 6.5z" />
    <glyph glyph-name="less" unicode="&#x3c;" horiz-adv-x="326" 
d="M362 471l-119.5 -111.5l-120.5 -110.5l94 -119.5t93 -121.5q-20 1 -40.5 0t-40.5 -1q-11 0 -21.5 0.5t-21.5 1.5l-74 90.5l-73 90.5q-10 13 -17.5 27.5t-7.5 31.5q0 9 2 15t7 14q12 21 28.5 38t34.5 32l37 29.5t37 31.5l64 63z" />
    <glyph glyph-name="greater" unicode="&#x3e;" horiz-adv-x="326" 
d="M13 8l119.5 111.5l120.5 110.5l-94 119.5t-93 121.5q20 -1 40.5 0t40.5 1q11 0 21.5 -0.5t21.5 -1.5l74 -90.5l73 -90.5q10 -13 17.5 -27.5t7.5 -31.5q0 -9 -2 -15t-7 -14q-12 -21 -28.5 -38t-34.5 -32l-37 -30t-37 -31l-64 -63z" />
    <glyph glyph-name="equal" unicode="=" horiz-adv-x="418" 
d="M89 233h293l-32 -84h-293zM150 398h293l-32 -84h-293z" />
    <glyph glyph-name="endash" unicode="&#x2013;" horiz-adv-x="458" 
d="M119 315h365l-32 -84h-365z" />
    <glyph glyph-name="emdash" unicode="&#x2014;" horiz-adv-x="495" 
d="M119 315h411l-32 -84h-411z" />
    <glyph glyph-name="guilsinglleft" unicode="&#x2039;" horiz-adv-x="244" 
d="M190 319l44 -44q-36 -27 -70 -56t-70 -56q13 -17 30.5 -30l34 -26.5t31.5 -28.5t24 -35q-9 -7 -20.5 -13.5t-23.5 -6.5q-10 0 -20 8l-68.5 63t-71.5 61q3 16 19.5 29l28.5 23q35 28 66.5 56z" />
    <glyph glyph-name="guilsinglright" unicode="&#x203a;" horiz-adv-x="269" 
d="M33 276q23 23 52 40q36 -42 77 -79l83 -73q-20 -13 -45.5 -32l-52 -39t-50.5 -40.5t-40 -36.5q-3 1 -11 5.5t-16 9.5t-14 10t-6 9q0 5 2.5 9.5t4.5 8.5q31 27 65 49.5l67 46.5l-59.5 54.5t-56.5 57.5z" />
    <glyph glyph-name="ae" unicode="&#xe6;" horiz-adv-x="506" 
d="M378 327q22 6 48 6q16 0 31.5 -3.5t28.5 -11t21 -20.5t8 -31q0 -37 -22 -66.5t-52.5 -53t-64 -40l-55.5 -27.5l144 2q-3 -14 -5.5 -27.5t-8.5 -25t-16 -18.5t-27 -7q-12 0 -31 -0.5t-39 -0.5h-38t-28 2h-1q-15 1 -31.5 3.5t-29.5 9.5q-5 3 -8 5t-10 2q-10 0 -19.5 -4.5
t-18.5 -6.5q-14 -4 -29.5 -5.5t-30.5 -1.5q-10 0 -22 0.5t-22 2.5q-12 3 -20 12t-12.5 21t-6 24.5t-1.5 22.5q0 22 11 46.5t27.5 48t35.5 43.5t35 34q25 21 57.5 34.5t67.5 21t69.5 9.5t64.5 0zM171 198q-29 -21 -52 -48t-29 -64q8 0 16.5 -0.5t17.5 -0.5q31 0 45.5 12.5
t22 30.5t13.5 39.5t20 39.5l7.5 13.5t8.5 12.5q-19 -6 -36 -14.5t-34 -20.5zM264 117q24 12 49.5 26.5t49 32t41 39t25.5 49.5q-28 0 -53.5 -14.5t-47 -36t-38 -47.5t-26.5 -49z" />
    <glyph glyph-name="Agrave" unicode="&#xc0;" horiz-adv-x="651" 
d="M626 683q19 0 31 -4.5t26 -17.5q18 -17 28 -35t14.5 -38t5 -42t0.5 -45q0 -25 -10 -65t-25.5 -87.5t-35.5 -98.5t-40.5 -97.5t-40 -85t-34.5 -61.5q-27 0 -54 0.5t-54 3.5q24 42 46.5 85.5t38.5 90.5q-69 -3 -136.5 -2.5t-135.5 -4.5q-1 -26 -3 -50.5t-2 -50.5
q0 -42 11.5 -80t16.5 -79q-58 6 -112 24q-16 77 -16 160q0 20 1.5 40t3.5 40q-35 0 -70 -0.5t-70 -2.5q9 26 23.5 48t24.5 47h112q12 21 20 44t20 44q19 32 46 68t60 72t70.5 68.5t77.5 57.5t81 39.5t81 14.5zM282 279q11 0 22 -2t22 -3q60 0 118 2t118 2q10 23 20.5 41
t15.5 42q9 38 21.5 73.5t12.5 75.5q0 9 -0.5 21.5t-3.5 23.5t-9.5 18.5t-19.5 7.5q-26 1 -47 -12t-41 -27q-74 -51 -133 -116t-96 -147zM656 712l-42 -1l-160 143l111 -2z" />
    <glyph glyph-name="Aacute" unicode="&#xc1;" horiz-adv-x="651" 
d="M626 683q19 0 31 -4.5t26 -17.5q18 -17 28 -35t14.5 -38t5 -42t0.5 -45q0 -25 -10 -65t-25.5 -87.5t-35.5 -98.5t-40.5 -97.5t-40 -85t-34.5 -61.5q-27 0 -54 0.5t-54 3.5q24 42 46.5 85.5t38.5 90.5q-69 -3 -136.5 -2.5t-135.5 -4.5q-1 -26 -3 -50.5t-2 -50.5
q0 -42 11.5 -80t16.5 -79q-58 6 -112 24q-16 77 -16 160q0 20 1.5 40t3.5 40q-35 0 -70 -0.5t-70 -2.5q9 26 23.5 48t24.5 47h112q12 21 20 44t20 44q19 32 46 68t60 72t70.5 68.5t77.5 57.5t81 39.5t81 14.5zM282 279q11 0 22 -2t22 -3q60 0 118 2t118 2q10 23 20.5 41
t15.5 42q9 38 21.5 73.5t12.5 75.5q0 9 -0.5 21.5t-3.5 23.5t-9.5 18.5t-19.5 7.5q-26 1 -47 -12t-41 -27q-74 -51 -133 -116t-96 -147zM725 843l111 2l-160 -143l-42 1z" />
    <glyph glyph-name="Acircumflex" unicode="&#xc2;" horiz-adv-x="651" 
d="M626 683q19 0 31 -4.5t26 -17.5q18 -17 28 -35t14.5 -38t5 -42t0.5 -45q0 -25 -10 -65t-25.5 -87.5t-35.5 -98.5t-40.5 -97.5t-40 -85t-34.5 -61.5q-27 0 -54 0.5t-54 3.5q24 42 46.5 85.5t38.5 90.5q-69 -3 -136.5 -2.5t-135.5 -4.5q-1 -26 -3 -50.5t-2 -50.5
q0 -42 11.5 -80t16.5 -79q-58 6 -112 24q-16 77 -16 160q0 20 1.5 40t3.5 40q-35 0 -70 -0.5t-70 -2.5q9 26 23.5 48t24.5 47h112q12 21 20 44t20 44q19 32 46 68t60 72t70.5 68.5t77.5 57.5t81 39.5t81 14.5zM282 279q11 0 22 -2t22 -3q60 0 118 2t118 2q10 23 20.5 41
t15.5 42q9 38 21.5 73.5t12.5 75.5q0 9 -0.5 21.5t-3.5 23.5t-9.5 18.5t-19.5 7.5q-26 1 -47 -12t-41 -27q-74 -51 -133 -116t-96 -147zM581 818l4 3h101l2 -3l53 -122l-32 -1l-86 71l-111 -71l-30 1z" />
    <glyph glyph-name="AE" unicode="&#xc6;" horiz-adv-x="947" 
d="M962 694q21 0 42 -5.5t37.5 -17.5t26.5 -29.5t10 -41.5q0 -33 -11 -65.5t-34 -55.5q-32 -32 -69 -60t-76 -52q-23 13 -46 23t-45 21q22 19 51.5 39t57.5 41.5t51 46t32 53.5q-17 6 -35 6q-23 0 -49.5 -6.5t-52 -17t-49.5 -23.5t-42 -26q-9 -7 -20 -18t-21 -24.5
t-16.5 -27.5t-6.5 -26q0 -21 10 -38t22 -31.5l22.5 -27.5t10.5 -26q0 -11 -7 -22.5t-15 -18.5q-17 -14 -37.5 -27l-39.5 -25l-83 -55l-81 -56q106 -1 212 -0.5t212 2.5q-6 -26 -21 -49t-31 -43q-8 -10 -22 -11t-26 -1l-320 2q-21 0 -41.5 3.5t-37.5 12.5t-27.5 25t-10.5 41
q0 13 3.5 28t9.5 26q5 8 16.5 20t28.5 26q-49 0 -97.5 -0.5t-96.5 -3.5q-1 -26 -3 -50.5t-2 -50.5q0 -42 11.5 -80t16.5 -79q-58 6 -112 24q-16 77 -16 160q0 20 1.5 40t3.5 40q-35 0 -70 -0.5t-70 -2.5q9 26 23.5 48t24.5 47h112q12 21 20 44t20 44q19 32 46 68t60 72
t70.5 68.5t77.5 57.5t81 39.5t81 14.5q19 0 31 -4.5t26 -17.5q21 -19 32 -45q29 19 61 33.5t64.5 24.5t63.5 15t58 5zM599 581q-26 1 -47 -12t-41 -27q-74 -51 -133 -116t-96 -147q30 -4 66 -5t73.5 -0.5t75 2t71.5 1.5l64 43q-7 18 -14 30t-12 23t-8 25t-3 37q0 29 9.5 55
t26.5 49q-2 16 -8.5 29t-23.5 13z" />
    <glyph glyph-name="Egrave" unicode="&#xc8;" horiz-adv-x="591" 
d="M586 694q21 0 42 -5.5t37.5 -17.5t26.5 -29.5t10 -41.5q0 -33 -11 -65.5t-34 -55.5q-32 -32 -69 -60t-76 -52q-23 13 -46 23t-45 21q22 19 51.5 39t57.5 41.5t51 46t32 53.5q-17 6 -35 6q-23 0 -49.5 -6.5t-52 -17t-49.5 -23.5t-42 -26q-9 -7 -20 -18t-21 -24.5
t-16.5 -27.5t-6.5 -26q0 -21 10 -38t22 -31.5l22.5 -27.5t10.5 -26q0 -11 -7 -22.5t-15 -18.5q-17 -14 -37.5 -27l-39.5 -25l-83 -55l-81 -56q106 -1 212 -0.5t212 2.5q-6 -26 -21 -49t-31 -43q-8 -10 -22 -11t-26 -1l-320 2q-21 0 -41.5 3.5t-37.5 12.5t-27.5 25t-10.5 41
q0 13 3.5 28t9.5 26q9 16 40 42t67.5 53.5t72 51.5l53.5 36q-7 18 -14 30t-12 23t-8 25t-3 37q0 39 18 74t47.5 63.5t67.5 51t79 38.5t81 24t74 8zM580 703l-42 -1l-160 143l111 -2z" />
    <glyph glyph-name="Eacute" unicode="&#xc9;" horiz-adv-x="591" 
d="M586 694q21 0 42 -5.5t37.5 -17.5t26.5 -29.5t10 -41.5q0 -33 -11 -65.5t-34 -55.5q-32 -32 -69 -60t-76 -52q-23 13 -46 23t-45 21q22 19 51.5 39t57.5 41.5t51 46t32 53.5q-17 6 -35 6q-23 0 -49.5 -6.5t-52 -17t-49.5 -23.5t-42 -26q-9 -7 -20 -18t-21 -24.5
t-16.5 -27.5t-6.5 -26q0 -21 10 -38t22 -31.5l22.5 -27.5t10.5 -26q0 -11 -7 -22.5t-15 -18.5q-17 -14 -37.5 -27l-39.5 -25l-83 -55l-81 -56q106 -1 212 -0.5t212 2.5q-6 -26 -21 -49t-31 -43q-8 -10 -22 -11t-26 -1l-320 2q-21 0 -41.5 3.5t-37.5 12.5t-27.5 25t-10.5 41
q0 13 3.5 28t9.5 26q9 16 40 42t67.5 53.5t72 51.5l53.5 36q-7 18 -14 30t-12 23t-8 25t-3 37q0 39 18 74t47.5 63.5t67.5 51t79 38.5t81 24t74 8zM720 844l111 2l-160 -143l-42 1z" />
    <glyph glyph-name="Ecircumflex" unicode="&#xca;" horiz-adv-x="591" 
d="M586 694q21 0 42 -5.5t37.5 -17.5t26.5 -29.5t10 -41.5q0 -33 -11 -65.5t-34 -55.5q-32 -32 -69 -60t-76 -52q-23 13 -46 23t-45 21q22 19 51.5 39t57.5 41.5t51 46t32 53.5q-17 6 -35 6q-23 0 -49.5 -6.5t-52 -17t-49.5 -23.5t-42 -26q-9 -7 -20 -18t-21 -24.5
t-16.5 -27.5t-6.5 -26q0 -21 10 -38t22 -31.5l22.5 -27.5t10.5 -26q0 -11 -7 -22.5t-15 -18.5q-17 -14 -37.5 -27l-39.5 -25l-83 -55l-81 -56q106 -1 212 -0.5t212 2.5q-6 -26 -21 -49t-31 -43q-8 -10 -22 -11t-26 -1l-320 2q-21 0 -41.5 3.5t-37.5 12.5t-27.5 25t-10.5 41
q0 13 3.5 28t9.5 26q9 16 40 42t67.5 53.5t72 51.5l53.5 36q-7 18 -14 30t-12 23t-8 25t-3 37q0 39 18 74t47.5 63.5t67.5 51t79 38.5t81 24t74 8zM552 818l4 3h101l2 -3l53 -122l-32 -1l-86 71l-111 -71l-30 1z" />
    <glyph glyph-name="Edieresis" unicode="&#xcb;" horiz-adv-x="591" 
d="M334 771q27 0 42.5 -17.5t15.5 -43.5q0 -28 -17.5 -42.5t-44.5 -14.5q-26 0 -39.5 16.5t-13.5 42.5t15 42.5t42 16.5zM762 737q27 0 42.5 -18.5t15.5 -44.5t-16.5 -40.5t-42.5 -14.5q-24 0 -40 18t-16 42q0 23 17 40.5t40 17.5zM586 694q21 0 42 -5.5t37.5 -17.5
t26.5 -29.5t10 -41.5q0 -33 -11 -65.5t-34 -55.5q-32 -32 -69 -60t-76 -52q-23 13 -46 23t-45 21q22 19 51.5 39t57.5 41.5t51 46t32 53.5q-17 6 -35 6q-23 0 -49.5 -6.5t-52 -17t-49.5 -23.5t-42 -26q-9 -7 -20 -18t-21 -24.5t-16.5 -27.5t-6.5 -26q0 -21 10 -38t22 -31.5
l22.5 -27.5t10.5 -26q0 -11 -7 -22.5t-15 -18.5q-17 -14 -37.5 -27l-39.5 -25l-83 -55l-81 -56q106 -1 212 -0.5t212 2.5q-6 -26 -21 -49t-31 -43q-8 -10 -22 -11t-26 -1l-320 2q-21 0 -41.5 3.5t-37.5 12.5t-27.5 25t-10.5 41q0 13 3.5 28t9.5 26q9 16 40 42t67.5 53.5
t72 51.5l53.5 36q-7 18 -14 30t-12 23t-8 25t-3 37q0 39 18 74t47.5 63.5t67.5 51t79 38.5t81 24t74 8z" />
    <glyph glyph-name="Igrave" unicode="&#xcc;" horiz-adv-x="640" 
d="M669 705q36 0 58.5 -26t22.5 -61q0 -17 -10.5 -51.5t-25 -73.5l-29 -74.5t-22.5 -53.5l-47 -111.5t-58 -105t-80 -83.5t-112 -47q-33 -6 -67.5 -8l-68.5 -4q-110 -3 -220 -3q9 30 29 53.5t35 50.5q51 0 101.5 1t101.5 1q45 0 79.5 9t70.5 36q26 19 42.5 39.5t29 43
t22.5 47.5l22 53l46 105.5l43 106.5q1 9 3.5 18t2.5 18q0 12 -10 16q-22 0 -44.5 -8.5t-43.5 -21.5t-40.5 -28.5l-35.5 -28.5q-9 -8 -27.5 -26t-37.5 -38.5t-33.5 -40.5t-14.5 -31q0 -29 15.5 -55t32.5 -49l-38 -42l-38 -42q-26 42 -47.5 88t-21.5 97q0 13 2.5 28t7.5 27
q11 28 34 58t53 59t65.5 55t72 46.5t71.5 34.5t65 18q11 2 22 3t22 1zM592 709l-42 -1l-160 143l111 -2z" />
    <glyph glyph-name="Iacute" unicode="&#xcd;" horiz-adv-x="640" 
d="M669 705q36 0 58.5 -26t22.5 -61q0 -17 -10.5 -51.5t-25 -73.5l-29 -74.5t-22.5 -53.5l-47 -111.5t-58 -105t-80 -83.5t-112 -47q-33 -6 -67.5 -8l-68.5 -4q-110 -3 -220 -3q9 30 29 53.5t35 50.5q51 0 101.5 1t101.5 1q45 0 79.5 9t70.5 36q26 19 42.5 39.5t29 43
t22.5 47.5l22 53l46 105.5l43 106.5q1 9 3.5 18t2.5 18q0 12 -10 16q-22 0 -44.5 -8.5t-43.5 -21.5t-40.5 -28.5l-35.5 -28.5q-9 -8 -27.5 -26t-37.5 -38.5t-33.5 -40.5t-14.5 -31q0 -29 15.5 -55t32.5 -49l-38 -42l-38 -42q-26 42 -47.5 88t-21.5 97q0 13 2.5 28t7.5 27
q11 28 34 58t53 59t65.5 55t72 46.5t71.5 34.5t65 18q11 2 22 3t22 1zM747 866l111 2l-160 -143l-42 1z" />
    <glyph glyph-name="Icircumflex" unicode="&#xce;" horiz-adv-x="640" 
d="M669 705q36 0 58.5 -26t22.5 -61q0 -17 -10.5 -51.5t-25 -73.5l-29 -74.5t-22.5 -53.5l-47 -111.5t-58 -105t-80 -83.5t-112 -47q-33 -6 -67.5 -8l-68.5 -4q-110 -3 -220 -3q9 30 29 53.5t35 50.5q51 0 101.5 1t101.5 1q45 0 79.5 9t70.5 36q26 19 42.5 39.5t29 43
t22.5 47.5l22 53l46 105.5l43 106.5q1 9 3.5 18t2.5 18q0 12 -10 16q-22 0 -44.5 -8.5t-43.5 -21.5t-40.5 -28.5l-35.5 -28.5q-9 -8 -27.5 -26t-37.5 -38.5t-33.5 -40.5t-14.5 -31q0 -29 15.5 -55t32.5 -49l-38 -42l-38 -42q-26 42 -47.5 88t-21.5 97q0 13 2.5 28t7.5 27
q11 28 34 58t53 59t65.5 55t72 46.5t71.5 34.5t65 18q11 2 22 3t22 1zM637 829l4 3h101l2 -3l53 -122l-32 -1l-86 71l-111 -71l-30 1z" />
    <glyph glyph-name="Idieresis" unicode="&#xcf;" horiz-adv-x="640" 
d="M669 705q36 0 58.5 -26t22.5 -61q0 -17 -10.5 -51.5t-25 -73.5l-29 -74.5t-22.5 -53.5l-47 -111.5t-58 -105t-80 -83.5t-112 -47q-33 -6 -67.5 -8l-68.5 -4q-110 -3 -220 -3q9 30 29 53.5t35 50.5q51 0 101.5 1t101.5 1q45 0 79.5 9t70.5 36q26 19 42.5 39.5t29 43
t22.5 47.5l22 53l46 105.5l43 106.5q1 9 3.5 18t2.5 18q0 12 -10 16q-22 0 -44.5 -8.5t-43.5 -21.5t-40.5 -28.5l-35.5 -28.5q-9 -8 -27.5 -26t-37.5 -38.5t-33.5 -40.5t-14.5 -31q0 -29 15.5 -55t32.5 -49l-38 -42l-38 -42q-26 42 -47.5 88t-21.5 97q0 13 2.5 28t7.5 27
q11 28 34 58t53 59t65.5 55t72 46.5t71.5 34.5t65 18q11 2 22 3t22 1zM594 834q27 0 42.5 -17.5t15.5 -43.5q0 -28 -17.5 -42.5t-44.5 -14.5q-26 0 -39.5 16.5t-13.5 42.5t15 42.5t42 16.5zM749 834q27 0 42.5 -18.5t15.5 -44.5t-16.5 -40.5t-42.5 -14.5q-24 0 -40 18
t-16 42q0 23 17 40.5t40 17.5z" />
    <glyph glyph-name="Ograve" unicode="&#xd2;" horiz-adv-x="646" 
d="M443 683q39 0 76.5 -14.5t68.5 -39.5t52 -59t28 -73h60q6 -26 9.5 -52t5.5 -52q-14 0 -27.5 1t-27.5 1q-7 0 -14.5 -0.5t-14.5 -1.5q-11 -46 -32 -93t-51.5 -92t-68 -84.5t-81 -68.5t-92 -46t-98.5 -17q-53 0 -94.5 19.5t-71 52.5t-44.5 77.5t-15 94.5q0 27 4 50t11.5 45
t17 43.5l20.5 44.5q29 66 77.5 113.5t106.5 86.5q33 23 71.5 36t77.5 23q11 3 23 4t23 1zM106 239q0 -29 8.5 -54.5t25 -44.5t40 -30t54.5 -11q55 0 107.5 26.5t96 69t74.5 94t43 101.5q-17 2 -32.5 5t-27.5 9.5t-19.5 19.5t-7.5 35q0 29 16 57t28 54q-31 14 -64 14
q-46 0 -92 -20.5t-87 -53t-74 -72.5t-52 -79q-14 -29 -25.5 -58t-11.5 -62zM534 693l-42 -1l-160 143l111 -2z" />
    <glyph glyph-name="Oacute" unicode="&#xd3;" horiz-adv-x="646" 
d="M443 683q39 0 76.5 -14.5t68.5 -39.5t52 -59t28 -73h60q6 -26 9.5 -52t5.5 -52q-14 0 -27.5 1t-27.5 1q-7 0 -14.5 -0.5t-14.5 -1.5q-11 -46 -32 -93t-51.5 -92t-68 -84.5t-81 -68.5t-92 -46t-98.5 -17q-53 0 -94.5 19.5t-71 52.5t-44.5 77.5t-15 94.5q0 27 4 50t11.5 45
t17 43.5l20.5 44.5q29 66 77.5 113.5t106.5 86.5q33 23 71.5 36t77.5 23q11 3 23 4t23 1zM106 239q0 -29 8.5 -54.5t25 -44.5t40 -30t54.5 -11q55 0 107.5 26.5t96 69t74.5 94t43 101.5q-17 2 -32.5 5t-27.5 9.5t-19.5 19.5t-7.5 35q0 29 16 57t28 54q-31 14 -64 14
q-46 0 -92 -20.5t-87 -53t-74 -72.5t-52 -79q-14 -29 -25.5 -58t-11.5 -62zM620 825l111 2l-160 -143l-42 1z" />
    <glyph glyph-name="Ocircumflex" unicode="&#xd4;" horiz-adv-x="646" 
d="M443 683q39 0 76.5 -14.5t68.5 -39.5t52 -59t28 -73h60q6 -26 9.5 -52t5.5 -52q-14 0 -27.5 1t-27.5 1q-7 0 -14.5 -0.5t-14.5 -1.5q-11 -46 -32 -93t-51.5 -92t-68 -84.5t-81 -68.5t-92 -46t-98.5 -17q-53 0 -94.5 19.5t-71 52.5t-44.5 77.5t-15 94.5q0 27 4 50t11.5 45
t17 43.5l20.5 44.5q29 66 77.5 113.5t106.5 86.5q33 23 71.5 36t77.5 23q11 3 23 4t23 1zM106 239q0 -29 8.5 -54.5t25 -44.5t40 -30t54.5 -11q55 0 107.5 26.5t96 69t74.5 94t43 101.5q-17 2 -32.5 5t-27.5 9.5t-19.5 19.5t-7.5 35q0 29 16 57t28 54q-31 14 -64 14
q-46 0 -92 -20.5t-87 -53t-74 -72.5t-52 -79q-14 -29 -25.5 -58t-11.5 -62zM433 821l4 3h101l2 -3l53 -122l-32 -1l-86 71l-111 -71l-30 1z" />
    <glyph glyph-name="Oslash" unicode="&#xd8;" horiz-adv-x="646" 
d="M443 683q39 0 76.5 -14.5t68.5 -39.5t52 -59t28 -73h60q6 -26 9.5 -52t5.5 -52q-14 0 -27.5 1t-27.5 1q-7 0 -14.5 -0.5t-14.5 -1.5q-11 -46 -32 -93t-51.5 -92t-68 -84.5t-81 -68.5t-92 -46t-98.5 -17q-53 0 -94.5 19.5t-71 52.5t-44.5 77.5t-15 94.5q0 27 4 50t11.5 45
t17 43.5l20.5 44.5q29 66 77.5 113.5t106.5 86.5q33 23 71.5 36t77.5 23q11 3 23 4t23 1zM106 239q0 -29 8.5 -54.5t25 -44.5t40 -30t54.5 -11q55 0 107.5 26.5t96 69t74.5 94t43 101.5q-17 2 -32.5 5t-27.5 9.5t-19.5 19.5t-7.5 35q0 29 16 57t28 54q-31 14 -64 14
q-46 0 -92 -20.5t-87 -53t-74 -72.5t-52 -79q-14 -29 -25.5 -58t-11.5 -62zM595 695q5 0 15 -2q-60 -77 -111 -157.5t-108 -158.5l-129 -184.5l-124 -186.5h-103q14 32 34 59.5l41 56.5l128.5 187.5l129.5 187.5q27 38 52 77t53 75q7 9 12 13.5t10 7t11 3.5t16 4
q18 5 37 11.5t36 6.5z" />
    <glyph glyph-name="Ugrave" unicode="&#xd9;" horiz-adv-x="575" 
d="M156 718q11 0 22 -4t21 -7q38 -12 63 -42.5t25 -72.5q0 -31 -12.5 -71t-31.5 -84t-40.5 -88.5l-40.5 -84.5t-31.5 -73.5t-12.5 -54.5q-1 -13 8.5 -24.5t23.5 -11.5q15 0 35.5 10t41 24.5t38 29.5t28.5 26q12 12 27.5 29.5t31 37t29 39t20.5 34.5q16 33 29.5 66.5l27 66.5
t29 65.5t35.5 64.5q5 8 10.5 19l11.5 22t14 19.5t17 11.5q11 4 27 7.5t33 6.5t33.5 5t28.5 2q3 0 6.5 -0.5t7.5 -0.5q-8 -29 -21.5 -50t-27.5 -46q-8 -13 -13.5 -27t-12.5 -28l-41.5 -76t-45.5 -73q-21 -32 -41 -58.5t-31 -64.5q-9 -32 -17 -64.5t-8 -65.5q0 -12 14 -18
t33 -8t37.5 -1.5t27.5 0.5q-13 -25 -24 -50t-24 -49q-12 0 -24 -0.5t-24 -0.5q-24 0 -45 2t-36.5 10t-24.5 24.5t-9 46.5q0 14 2 27t2 27l-47.5 -49.5t-54 -46.5t-60.5 -34.5t-67 -13.5q-25 0 -46.5 9.5t-37.5 25.5t-25 37.5t-9 46.5q1 39 14 80.5t29 77.5l59 126.5
t50 129.5q5 17 5 30q0 14 -5 27.5t-16 22.5l-72 12q4 8 14 24t22.5 31.5t24.5 27.5t21 12zM487 634l-42 -1l-160 143l111 -2z" />
    <glyph glyph-name="Uacute" unicode="&#xda;" horiz-adv-x="575" 
d="M156 718q11 0 22 -4t21 -7q38 -12 63 -42.5t25 -72.5q0 -31 -12.5 -71t-31.5 -84t-40.5 -88.5l-40.5 -84.5t-31.5 -73.5t-12.5 -54.5q-1 -13 8.5 -24.5t23.5 -11.5q15 0 35.5 10t41 24.5t38 29.5t28.5 26q12 12 27.5 29.5t31 37t29 39t20.5 34.5q16 33 29.5 66.5l27 66.5
t29 65.5t35.5 64.5q5 8 10.5 19l11.5 22t14 19.5t17 11.5q11 4 27 7.5t33 6.5t33.5 5t28.5 2q3 0 6.5 -0.5t7.5 -0.5q-8 -29 -21.5 -50t-27.5 -46q-8 -13 -13.5 -27t-12.5 -28l-41.5 -76t-45.5 -73q-21 -32 -41 -58.5t-31 -64.5q-9 -32 -17 -64.5t-8 -65.5q0 -12 14 -18
t33 -8t37.5 -1.5t27.5 0.5q-13 -25 -24 -50t-24 -49q-12 0 -24 -0.5t-24 -0.5q-24 0 -45 2t-36.5 10t-24.5 24.5t-9 46.5q0 14 2 27t2 27l-47.5 -49.5t-54 -46.5t-60.5 -34.5t-67 -13.5q-25 0 -46.5 9.5t-37.5 25.5t-25 37.5t-9 46.5q1 39 14 80.5t29 77.5l59 126.5
t50 129.5q5 17 5 30q0 14 -5 27.5t-16 22.5l-72 12q4 8 14 24t22.5 31.5t24.5 27.5t21 12zM452 767l111 2l-160 -143l-42 1z" />
    <glyph glyph-name="Ucircumflex" unicode="&#xdb;" horiz-adv-x="575" 
d="M156 718q11 0 22 -4t21 -7q38 -12 63 -42.5t25 -72.5q0 -31 -12.5 -71t-31.5 -84t-40.5 -88.5l-40.5 -84.5t-31.5 -73.5t-12.5 -54.5q-1 -13 8.5 -24.5t23.5 -11.5q15 0 35.5 10t41 24.5t38 29.5t28.5 26q12 12 27.5 29.5t31 37t29 39t20.5 34.5q16 33 29.5 66.5l27 66.5
t29 65.5t35.5 64.5q5 8 10.5 19l11.5 22t14 19.5t17 11.5q11 4 27 7.5t33 6.5t33.5 5t28.5 2q3 0 6.5 -0.5t7.5 -0.5q-8 -29 -21.5 -50t-27.5 -46q-8 -13 -13.5 -27t-12.5 -28l-41.5 -76t-45.5 -73q-21 -32 -41 -58.5t-31 -64.5q-9 -32 -17 -64.5t-8 -65.5q0 -12 14 -18
t33 -8t37.5 -1.5t27.5 0.5q-13 -25 -24 -50t-24 -49q-12 0 -24 -0.5t-24 -0.5q-24 0 -45 2t-36.5 10t-24.5 24.5t-9 46.5q0 14 2 27t2 27l-47.5 -49.5t-54 -46.5t-60.5 -34.5t-67 -13.5q-25 0 -46.5 9.5t-37.5 25.5t-25 37.5t-9 46.5q1 39 14 80.5t29 77.5l59 126.5
t50 129.5q5 17 5 30q0 14 -5 27.5t-16 22.5l-72 12q4 8 14 24t22.5 31.5t24.5 27.5t21 12zM393 786l4 3h101l2 -3l53 -122l-32 -1l-86 71l-111 -71l-30 1z" />
    <glyph glyph-name="Yacute" unicode="&#xdd;" horiz-adv-x="483" 
d="M129 696q27 -2 58 -2.5t57 -8t43 -26.5t17 -58q0 -12 -8 -37t-20.5 -57t-28 -68l-30.5 -69l-27.5 -60t-18.5 -42l-14 -30l-18 -39.5t-15.5 -39t-6.5 -28.5q0 -9 5.5 -17t15.5 -8q4 0 8 2q21 -4 47.5 10.5t55 39.5t56 57t51 64.5t40.5 61t24 46.5q22 58 48.5 112.5
t51.5 111.5q12 25 26 31.5t39 11.5q31 8 59.5 18.5t60.5 13.5q-16 -39 -41 -84.5t-53 -91.5l-56.5 -90l-51.5 -81q-12 -20 -21 -41.5t-16.5 -44.5l-14.5 -46t-16 -44l-34.5 -76.5l-34.5 -75.5q-38 -84 -85 -154l-100 -145q-29 0 -58 2.5t-58 6.5q20 30 44 57.5t44 57.5
q48 70 91 139t75 149l-46.5 -40.5t-47 -37t-52.5 -27t-62 -10.5q-47 1 -74 32t-26 77q0 30 16.5 77.5t38.5 98.5t45 98.5t37 79.5q11 28 24.5 55.5t19.5 56.5q-26 9 -53.5 10.5t-54.5 1.5q7 27 20 51t25 49zM456 746l111 2l-160 -143l-42 1z" />
    <glyph glyph-name="ellipsis" unicode="&#x2026;" horiz-adv-x="668" 
d="M178 150q29 0 49.5 -22.5t20.5 -50.5q0 -14 -7 -28t-18.5 -25t-25.5 -18.5t-27 -7.5q-16 0 -28 8t-20.5 20.5t-13 28t-4.5 29.5q0 30 23 48t51 18zM342 150q29 0 49.5 -22.5t20.5 -50.5q0 -14 -7 -28t-18.5 -25t-25.5 -18.5t-27 -7.5q-16 0 -28 8t-20.5 20.5t-13 28
t-4.5 29.5q0 30 23 48t51 18zM506 150q29 0 49.5 -22.5t20.5 -50.5q0 -14 -7 -28t-18.5 -25t-25.5 -18.5t-27 -7.5q-16 0 -28 8t-20.5 20.5t-13 28t-4.5 29.5q0 30 23 48t51 18z" />
    <glyph glyph-name="quotesinglbase" unicode="&#x201a;" horiz-adv-x="256" 
d="M102 126l136 -1q-20 -32 -45.5 -61.5l-50.5 -58.5l-12 -15t-15 -18t-16.5 -15.5t-16.5 -6.5q-19 0 -37 2t-35 10l48 60q6 8 5 23.5t3 24.5q5 14 16.5 28t19.5 28z" />
    <glyph glyph-name="cedilla" unicode="&#xb8;" horiz-adv-x="277" 
d="M181 9q-9 -11 -20.5 -19t-18.5 -20q2 -9 6 -14.5l7.5 -10.5t6.5 -11t3 -15q0 -3 -0.5 -8t-1.5 -11t-2.5 -11.5t-2.5 -7.5q-12 -25 -29 -36t-36.5 -14.5t-41.5 -2.5t-44 0q2 4 5.5 12l7.5 17t8.5 16t9.5 8q11 3 23 1.5t21.5 -0.5t16 8t6.5 27q0 10 -5.5 18t-12 14t-12 10
t-5.5 8t5.5 10t12.5 11.5t14.5 9.5t11.5 5q7 2 10.5 4.5t10.5 2.5q8 0 23.5 0.5t22.5 -1.5z" />
    <glyph glyph-name="Ccedilla" unicode="&#xc7;" horiz-adv-x="521" 
d="M589 701q48 0 78.5 -28.5t30.5 -77.5q0 -34 -16 -69t-41.5 -69t-59 -66.5t-68 -60.5t-67.5 -52t-59 -41q-8 -5 -16.5 -9t-18.5 -4q-27 0 -60 9t-57 20q26 17 55 31t53 33l23.5 20t24.5 20l48.5 38.5l52.5 42.5t49.5 46t38.5 48q8 14 10 29.5t2 30.5q-8 3 -16 5t-16 2
q-23 0 -42 -8t-38 -19q-55 -30 -110.5 -70t-104 -88t-87 -103.5t-59.5 -116.5q-5 -13 -5 -24q-1 -29 17 -48.5t47 -20.5q25 0 50 -2t51 -2q51 0 101.5 2t101.5 1q-6 -28 -25.5 -50t-34.5 -45q-56 -3 -112 -3.5t-112 -0.5q-43 0 -78 8t-59 27t-37 50.5t-13 79.5q0 21 8 47.5
t20 52.5t26 50.5t26 41.5q58 81 123.5 145.5t149.5 117.5q53 33 107 56.5t118 23.5zM347 9q-9 -11 -20.5 -19t-18.5 -20q2 -9 6 -14.5l7.5 -10.5t6.5 -11t3 -15q0 -3 -0.5 -8t-1.5 -11t-2.5 -11.5t-2.5 -7.5q-12 -25 -29 -36t-36.5 -14.5t-41.5 -2.5t-44 0q2 4 5.5 12
l7.5 17t8.5 16t9.5 8q11 3 23 1.5t21.5 -0.5t16 8t6.5 27q0 10 -5.5 18t-12 14t-12 10t-5.5 8t5.5 10t12.5 11.5t14.5 9.5t11.5 5q7 2 10.5 4.5t10.5 2.5q8 0 23.5 0.5t22.5 -1.5z" />
    <glyph glyph-name="ccedilla" unicode="&#xe7;" horiz-adv-x="346" 
d="M268 337q30 0 49 -15.5t19 -47.5q0 -10 -1.5 -23.5t-6 -26.5t-11.5 -23.5t-17 -13.5q-14 -5 -27 -9t-28 -4h-6.5t-6.5 1q10 20 17 40.5t7 43.5q-27 0 -55.5 -16.5t-52 -42t-39.5 -55.5t-18 -57q48 -13 96 -11t96 2q-6 -16 -12.5 -30.5t-15.5 -29.5q-8 -13 -21 -14.5
t-27 -1.5q-28 0 -62.5 -0.5t-64.5 6.5t-50 26.5t-20 60.5q0 8 1 12q7 42 31.5 83.5t60 73.5t78 52t87.5 20zM198 9q-9 -11 -20.5 -19t-18.5 -20q2 -9 6 -14.5l7.5 -10.5t6.5 -11t3 -15q0 -3 -0.5 -8t-1.5 -11t-2.5 -11.5t-2.5 -7.5q-12 -25 -29 -36t-36.5 -14.5t-41.5 -2.5
t-44 0q2 4 5.5 12l7.5 17t8.5 16t9.5 8q11 3 23 1.5t21.5 -0.5t16 8t6.5 27q0 10 -5.5 18t-12 14t-12 10t-5.5 8t5.5 10t12.5 11.5t14.5 9.5t11.5 5q7 2 10.5 4.5t10.5 2.5q8 0 23.5 0.5t22.5 -1.5z" />
    <glyph glyph-name="tilde" unicode="&#x2dc;" horiz-adv-x="0" 
d="M255 492q4 -2 9.5 -7t9.5 -11.5t7 -13t3 -10.5q0 -20 -20.5 -36.5t-56.5 -17.5q-21 0 -33.5 8t-22.5 18t-20.5 18.5t-26.5 8.5q-11 0 -17 -7.5t-10 -16t-7 -16t-8 -7.5q-17 0 -34.5 8.5t-19.5 13.5l17.5 38t18 26t27 14t43.5 4q21 0 32.5 -8t20.5 -18t17 -18t22 -8
q20 -1 30.5 13z" />
    <glyph glyph-name="atilde" unicode="&#xe3;" horiz-adv-x="389" 
d="M379 329q-9 -20 -19.5 -40l-20.5 -40q-46 -3 -88 -13.5t-80 -37.5q-29 -21 -52 -48t-29 -64q8 0 16.5 -0.5t17.5 -0.5q32 0 46.5 13t22 31.5t13.5 40.5t21 40q21 2 42 3t42 4q-4 -15 -10.5 -30l-12.5 -30t-10 -31t-4 -32v-9q20 -3 40 -3.5t40 -0.5q-6 -20 -14.5 -38.5
l-17.5 -37.5h-36q-17 0 -38.5 2.5t-37.5 10.5q-5 3 -8 5t-10 2q-10 0 -19.5 -4.5t-18.5 -6.5q-14 -4 -29.5 -5.5t-30.5 -1.5q-10 0 -22 0.5t-22 2.5q-12 3 -20 12t-12.5 21t-6 24.5t-1.5 22.5q0 22 11 46.5t27.5 48t35.5 43.5t35 34q25 21 57 34.5t66.5 20.5t69.5 9.5
t67 2.5zM381 462q4 -2 9.5 -7t9.5 -11.5t7 -13t3 -10.5q0 -20 -20.5 -36.5t-56.5 -17.5q-21 0 -33.5 8t-22.5 18t-20.5 18.5t-26.5 8.5q-11 0 -17 -7.5t-10 -16t-7 -16t-8 -7.5q-17 0 -34.5 8.5t-19.5 13.5l17.5 38t18 26t27 14t43.5 4q21 0 32.5 -8t20.5 -18t17 -18t22 -8
q20 -1 30.5 13z" />
    <glyph glyph-name="Ntilde" unicode="&#xd1;" horiz-adv-x="716" 
d="M809 708l14 -20l20.5 -29.5t18 -29.5t7.5 -20q0 -11 -4 -20t-9 -17l-60 -120.5t-66 -116t-74.5 -110.5t-85.5 -104l-31 -35t-41 -41.5t-44.5 -35t-40.5 -14.5q-14 0 -22 10t-11.5 23.5t-4 28.5t-0.5 26q0 41 6.5 81.5t15 80.5l17 79.5t14.5 80.5q-21 -26 -38 -55t-35 -56
q-69 -110 -151 -211l-20.5 -27.5t-21.5 -25.5q-9 -10 -18.5 -18.5t-23.5 -10.5t-29 -0.5t-29 1.5q-13 0 -26 1t-26 4q87 80 158.5 173t138.5 190q51 71 93 146t89 149q31 9 61.5 15.5t62.5 12.5q-26 -60 -51 -128t-44.5 -138.5t-32 -141.5t-14.5 -136q37 26 63.5 63l52.5 73
q30 41 56.5 84t49.5 89q9 17 17 35t18 35q25 45 45 88t36 92zM802 832q4 -2 9.5 -7t9.5 -11.5t7 -13t3 -10.5q0 -20 -20.5 -36.5t-56.5 -17.5q-21 0 -33.5 8t-22.5 18t-20.5 18.5t-26.5 8.5q-11 0 -17 -7.5t-10 -16t-7 -16t-8 -7.5q-17 0 -34.5 8.5t-19.5 13.5l17.5 38
t18 26t27 14t43.5 4q21 0 32.5 -8t20.5 -18t17 -18t22 -8q20 -1 30.5 13z" />
    <glyph glyph-name="Otilde" unicode="&#xd5;" horiz-adv-x="646" 
d="M443 683q39 0 76.5 -14.5t68.5 -39.5t52 -59t28 -73h60q6 -26 9.5 -52t5.5 -52q-14 0 -27.5 1t-27.5 1q-7 0 -14.5 -0.5t-14.5 -1.5q-11 -46 -32 -93t-51.5 -92t-68 -84.5t-81 -68.5t-92 -46t-98.5 -17q-53 0 -94.5 19.5t-71 52.5t-44.5 77.5t-15 94.5q0 27 4 50t11.5 45
t17 43.5l20.5 44.5q29 66 77.5 113.5t106.5 86.5q33 23 71.5 36t77.5 23q11 3 23 4t23 1zM106 239q0 -29 8.5 -54.5t25 -44.5t40 -30t54.5 -11q55 0 107.5 26.5t96 69t74.5 94t43 101.5q-17 2 -32.5 5t-27.5 9.5t-19.5 19.5t-7.5 35q0 29 16 57t28 54q-31 14 -64 14
q-46 0 -92 -20.5t-87 -53t-74 -72.5t-52 -79q-14 -29 -25.5 -58t-11.5 -62zM639 802q4 -2 9.5 -7t9.5 -11.5t7 -13t3 -10.5q0 -20 -20.5 -36.5t-56.5 -17.5q-21 0 -33.5 8t-22.5 18t-20.5 18.5t-26.5 8.5q-11 0 -17 -7.5t-10 -16t-7 -16t-8 -7.5q-17 0 -34.5 8.5t-19.5 13.5
l17.5 38t18 26t27 14t43.5 4q21 0 32.5 -8t20.5 -18t17 -18t22 -8q20 -1 30.5 13z" />
    <glyph glyph-name="otilde" unicode="&#xf5;" horiz-adv-x="343" 
d="M199 333q44 0 69.5 -20t39.5 -61q13 -3 26 -3.5t26 -0.5q-3 -17 -6.5 -32.5t-9.5 -31.5q-10 -7 -22.5 -11.5t-17.5 -16.5q-14 -30 -26.5 -59.5t-38.5 -52.5q-20 -17 -49 -30.5t-55 -13.5q-57 0 -91 27.5t-34 87.5q0 37 14.5 76t40 70.5t60 51.5t74.5 20zM134 78
q19 0 33 8.5t25.5 22t20 29t15.5 30.5q-17 9 -26 17t-13 18t-4.5 23t-0.5 30q-40 -12 -66.5 -47t-26.5 -77q0 -23 8.5 -38.5t34.5 -15.5zM349 466q4 -2 9.5 -7t9.5 -11.5t7 -13t3 -10.5q0 -20 -20.5 -36.5t-56.5 -17.5q-21 0 -33.5 8t-22.5 18t-20.5 18.5t-26.5 8.5
q-11 0 -17 -7.5t-10 -16t-7 -16t-8 -7.5q-17 0 -34.5 8.5t-19.5 13.5l17.5 38t18 26t27 14t43.5 4q21 0 32.5 -8t20.5 -18t17 -18t22 -8q20 -1 30.5 13z" />
    <glyph glyph-name="ntilde" unicode="&#xf1;" horiz-adv-x="381" 
d="M111 314l96 12q-9 -27 -23.5 -51.5t-20.5 -52.5l33 28t42.5 32.5t44.5 27t40 11.5q20 0 34 -15t14 -35q0 -21 -9 -46t-21 -50l-24.5 -50t-19.5 -46h69q-3 -19 -10.5 -40t-17.5 -38q-12 1 -36 0t-48 1t-42 10.5t-18 28.5q0 13 9.5 37.5t22.5 52l24.5 54t16.5 44.5
q-22 -3 -49 -25.5t-52.5 -52t-47 -60t-32.5 -49.5q-2 -3 -3.5 -9l-3 -12t-4 -10.5t-6.5 -5.5q-8 -3 -20.5 -3.5t-26 -0.5t-26.5 0.5t-22 0.5q23 62 52.5 120t52.5 120q7 19 15 36.5zM381 484q4 -2 9.5 -7t9.5 -11.5t7 -13t3 -10.5q0 -20 -20.5 -36.5t-56.5 -17.5
q-21 0 -33.5 8t-22.5 18t-20.5 18.5t-26.5 8.5q-11 0 -17 -7.5t-10 -16t-7 -16t-8 -7.5q-17 0 -34.5 8.5t-19.5 13.5l17.5 38t18 26t27 14t43.5 4q21 0 32.5 -8t20.5 -18t17 -18t22 -8q20 -1 30.5 13z" />
    <glyph glyph-name="oslash" unicode="&#xf8;" horiz-adv-x="343" 
d="M199 333q44 0 69.5 -20t39.5 -61q13 -3 26 -3.5t26 -0.5q-3 -17 -6.5 -32.5t-9.5 -31.5q-10 -7 -22.5 -11.5t-17.5 -16.5q-14 -30 -26.5 -59.5t-38.5 -52.5q-20 -17 -49 -30.5t-55 -13.5q-57 0 -91 27.5t-34 87.5q0 37 14.5 76t40 70.5t60 51.5t74.5 20zM134 78
q19 0 33 8.5t25.5 22t20 29t15.5 30.5q-17 9 -26 17t-13 18t-4.5 23t-0.5 30q-40 -12 -66.5 -47t-26.5 -77q0 -23 8.5 -38.5t34.5 -15.5zM387.188 408.912q3.89551 0 11.6865 -1.30273q-46.7471 -50.1797 -86.4814 -102.639q-39.7354 -52.46 -84.1445 -103.29
l-100.506 -120.233l-96.6104 -121.537h-80.248q10.9072 20.8535 26.4893 38.7744l31.9443 36.8193l100.116 122.188l100.895 122.188q21.0361 24.7637 40.5146 50.1787q19.4775 25.416 41.293 48.876q5.45312 5.86523 9.34863 8.79785q3.89551 2.93164 7.79102 4.56152
q3.89648 1.62891 8.57031 2.28027q4.6748 0.652344 12.4658 2.60742q14.0244 3.25781 28.8271 7.49414q14.8037 4.23535 28.0488 4.23535z" />
    <glyph glyph-name="Atilde" unicode="&#xc3;" horiz-adv-x="651" 
d="M626 683q19 0 31 -4.5t26 -17.5q18 -17 28 -35t14.5 -38t5 -42t0.5 -45q0 -25 -10 -65t-25.5 -87.5t-35.5 -98.5t-40.5 -97.5t-40 -85t-34.5 -61.5q-27 0 -54 0.5t-54 3.5q24 42 46.5 85.5t38.5 90.5q-69 -3 -136.5 -2.5t-135.5 -4.5q-1 -26 -3 -50.5t-2 -50.5
q0 -42 11.5 -80t16.5 -79q-58 6 -112 24q-16 77 -16 160q0 20 1.5 40t3.5 40q-35 0 -70 -0.5t-70 -2.5q9 26 23.5 48t24.5 47h112q12 21 20 44t20 44q19 32 46 68t60 72t70.5 68.5t77.5 57.5t81 39.5t81 14.5zM282 279q11 0 22 -2t22 -3q60 0 118 2t118 2q10 23 20.5 41
t15.5 42q9 38 21.5 73.5t12.5 75.5q0 9 -0.5 21.5t-3.5 23.5t-9.5 18.5t-19.5 7.5q-26 1 -47 -12t-41 -27q-74 -51 -133 -116t-96 -147zM746 819q4 -2 9.5 -7t9.5 -11.5t7 -13t3 -10.5q0 -20 -20.5 -36.5t-56.5 -17.5q-21 0 -33.5 8t-22.5 18t-20.5 18.5t-26.5 8.5
q-11 0 -17 -7.5t-10 -16t-7 -16t-8 -7.5q-17 0 -34.5 8.5t-19.5 13.5l17.5 38t18 26t27 14t43.5 4q21 0 32.5 -8t20.5 -18t17 -18t22 -8q20 -1 30.5 13z" />
    <glyph glyph-name="Eth" unicode="&#xd0;" horiz-adv-x="586" 
d="M38 339h73q8 24 17.5 47.5t23.5 44.5q6 10 23 18t37 13t40 8t32 4q-14 -25 -31 -60t-34 -75h112l-32 -84h-113q-17 -44 -29.5 -83.5t-18.5 -68.5q59 14 114.5 45l106.5 62q37 23 83.5 61t88 84.5t69.5 96.5t28 97q0 13 -7.5 20.5t-18 11.5t-22.5 5t-21 1q-30 1 -58 -6.5
t-57 -14.5q-77 -18 -151 -39t-149 -48q-26 -10 -51.5 -22.5t-52.5 -21.5q0 62 24 116q11 11 26.5 17l29.5 11l113.5 36t116 33t117.5 25t118 12h11q60 0 97.5 -37t37.5 -97q0 -29 -10.5 -62t-26.5 -65t-36 -61t-39 -50l-57 -67t-63 -60q-29 -22 -70 -49.5t-85.5 -53.5
t-88 -46.5t-77.5 -29.5q-30 -8 -65 -12t-67 -4q-2 0 -7.5 2t-11 5l-10.5 5.5l-7 3.5q8 64 30.5 125l43.5 123h-78z" />
    <glyph glyph-name="parenright" unicode=")" horiz-adv-x="237" 
d="M-81 -301q-3 -1 -10 -1q-16 0 -31.5 6.5t-30.5 11.5l58 77t58 78l35.5 51.5l38.5 59l36.5 60t29.5 53.5q40 82 72 156.5t54 149.5t34 155t12 173q0 6 2 12t7 10q20 -3 39 -7t37 -13q1 -8 1 -15v-14q0 -110 -25.5 -220t-68.5 -216t-99 -206t-117 -189l-62 -89t-70 -83z
" />
    <glyph glyph-name="plus" unicode="+" horiz-adv-x="418" 
d="M154 135l35 96h-102l32 84h101l35 96l89 1l-35 -97h103l-32 -84h-102l-34 -95z" />
    <glyph glyph-name="ring" unicode="&#x2da;" 
d="M155 431q-3 -16 6.5 -26.5t24.5 -10.5t27.5 10.5t15.5 26.5q2 15 -6.5 26t-23.5 11t-28.5 -11t-15.5 -26zM100 431q3 18 14 35t26 29.5t33 20t37 7.5t34 -7.5t25.5 -20t14.5 -29.5t1 -35q-8 -39 -39.5 -66t-69.5 -27q-19 0 -34.5 7t-26 20t-15 29.5t-0.5 36.5z" />
    <glyph glyph-name="aring" unicode="&#xe5;" horiz-adv-x="389" 
d="M379 329q-9 -20 -19.5 -40l-20.5 -40q-46 -3 -88 -13.5t-80 -37.5q-29 -21 -52 -48t-29 -64q8 0 16.5 -0.5t17.5 -0.5q32 0 46.5 13t22 31.5t13.5 40.5t21 40q21 2 42 3t42 4q-4 -15 -10.5 -30l-12.5 -30t-10 -31t-4 -32v-9q20 -3 40 -3.5t40 -0.5q-6 -20 -14.5 -38.5
l-17.5 -37.5h-36q-17 0 -38.5 2.5t-37.5 10.5q-5 3 -8 5t-10 2q-10 0 -19.5 -4.5t-18.5 -6.5q-14 -4 -29.5 -5.5t-30.5 -1.5q-10 0 -22 0.5t-22 2.5q-12 3 -20 12t-12.5 21t-6 24.5t-1.5 22.5q0 22 11 46.5t27.5 48t35.5 43.5t35 34q25 21 57 34.5t66.5 20.5t69.5 9.5
t67 2.5zM259 453q-3 -16 6.5 -26.5t24.5 -10.5t27.5 10.5t15.5 26.5q2 15 -6.5 26t-23.5 11t-28.5 -11t-15.5 -26zM204 453q3 18 14 35t26 29.5t33 20t37 7.5t34 -7.5t25.5 -20t14.5 -29.5t1 -35q-8 -39 -39.5 -66t-69.5 -27q-19 0 -34.5 7t-26 20t-15 29.5t-0.5 36.5z" />
    <glyph glyph-name="Aring" unicode="&#xc5;" horiz-adv-x="651" 
d="M626 683q19 0 31 -4.5t26 -17.5q18 -17 28 -35t14.5 -38t5 -42t0.5 -45q0 -25 -10 -65t-25.5 -87.5t-35.5 -98.5t-40.5 -97.5t-40 -85t-34.5 -61.5q-27 0 -54 0.5t-54 3.5q24 42 46.5 85.5t38.5 90.5q-69 -3 -136.5 -2.5t-135.5 -4.5q-1 -26 -3 -50.5t-2 -50.5
q0 -42 11.5 -80t16.5 -79q-58 6 -112 24q-16 77 -16 160q0 20 1.5 40t3.5 40q-35 0 -70 -0.5t-70 -2.5q9 26 23.5 48t24.5 47h112q12 21 20 44t20 44q19 32 46 68t60 72t70.5 68.5t77.5 57.5t81 39.5t81 14.5zM282 279q11 0 22 -2t22 -3q60 0 118 2t118 2q10 23 20.5 41
t15.5 42q9 38 21.5 73.5t12.5 75.5q0 9 -0.5 21.5t-3.5 23.5t-9.5 18.5t-19.5 7.5q-26 1 -47 -12t-41 -27q-74 -51 -133 -116t-96 -147zM638 815q-3 -16 6.5 -26.5t24.5 -10.5t27.5 10.5t15.5 26.5q2 15 -6.5 26t-23.5 11t-28.5 -11t-15.5 -26zM583 815q3 18 14 35t26 29.5
t33 20t37 7.5t34 -7.5t25.5 -20t14.5 -29.5t1 -35q-8 -39 -39.5 -66t-69.5 -27q-19 0 -34.5 7t-26 20t-15 29.5t-0.5 36.5z" />
    <glyph glyph-name="quotesingle" unicode="'" horiz-adv-x="261" 
d="M304 471l-96 -12l17 39t3 7.5t-4.5 -8.5t-4.5 -8.5t2.5 7.5t17.5 39l7.5 21l9.5 26.5t10.5 25t12.5 15.5q6 4 18 6.5t24.5 4l25 3l20.5 2.5z" />
    <glyph glyph-name="quotedbl" unicode="&#x22;" horiz-adv-x="400" 
d="M452 471l-96 -12l17 39t3 7.5t-4.5 -8.5t-4.5 -8.5t3 7.5l17 39l7.5 21l9.5 26.5t10.5 25t12.5 15.5q6 4 18 6.5t24.5 4l25 3l20.5 2.5zM304 471l-96 -12l17 39t3 7.5t-4.5 -8.5t-4.5 -8.5t2.5 7.5t17.5 39l7.5 21l9.5 26.5t10.5 25t12.5 15.5q6 4 18 6.5t24.5 4l25 3
l20.5 2.5z" />
    <glyph glyph-name="dollar" unicode="$" horiz-adv-x="487" 
d="M591 706q35 0 52.5 -22t16.5 -54q0 -30 -18.5 -67.5t-44 -75.5t-53.5 -72l-47 -56h-120q15 23 40.5 54l50.5 64t45 65t25 56h-10q-18 0 -44.5 -7t-55.5 -19.5t-58 -29t-52 -36t-37.5 -40.5t-14.5 -42q0 -15 11.5 -32.5t29.5 -36.5l38.5 -40.5t38.5 -44t30 -46.5t12 -49
q0 -20 -6.5 -40t-17 -39t-24.5 -35t-30 -26q-14 -9 -31 -14.5t-35 -8.5t-36 -3.5t-34 -0.5h-56q-11 -26 -21 -52.5l-20 -53.5h-104q5 29 16 53.5l23 50.5q-42 -1 -83 -1.5t-83 0.5q12 27 28 51l32 49l260 -1q15 0 34.5 2.5t36.5 9.5t29.5 19t12.5 32q0 18 -12.5 36t-30.5 37
t-39.5 39t-40 42t-30.5 46.5t-12 51.5q0 17 5 33.5t13 31.5q21 36 52 67t68.5 57t79.5 45.5t86 32.5l15 45t18 43q5 9 8.5 13.5t7.5 7t10 3.5t15 4q17 5 34 11.5t34 6.5q6 0 16 -2q-14 -28 -26.5 -56l-24.5 -57q8 0 14.5 0.5t13.5 0.5z" />
    <glyph glyph-name="bracketleft" unicode="[" horiz-adv-x="237" 
d="M452 750q3 1 10 1q16 0 31.5 -6.5t30.5 -11.5l-58 -77t-58 -78l-35.5 -51.5l-38.5 -59l-36.5 -60t-29.5 -53.5q-40 -82 -72 -156.5t-54 -149.5t-34 -155t-12 -173q0 -6 -2 -12t-7 -10q-20 3 -39 7t-37 13q-1 8 -1 15v14q0 110 25.5 220t68.5 216t99 206t117 189l62 89
t70 83z" />
    <glyph glyph-name="braceleft" unicode="{" horiz-adv-x="237" 
d="M452 750q3 1 10 1q16 0 31.5 -6.5t30.5 -11.5l-58 -77t-58 -78l-35.5 -51.5l-38.5 -59l-36.5 -60t-29.5 -53.5q-40 -82 -72 -156.5t-54 -149.5t-34 -155t-12 -173q0 -6 -2 -12t-7 -10q-20 3 -39 7t-37 13q-1 8 -1 15v14q0 110 25.5 220t68.5 216t99 206t117 189l62 89
t70 83z" />
    <glyph glyph-name="bracketright" unicode="]" horiz-adv-x="237" 
d="M-81 -301q-3 -1 -10 -1q-16 0 -31.5 6.5t-30.5 11.5l58 77t58 78l35.5 51.5l38.5 59l36.5 60t29.5 53.5q40 82 72 156.5t54 149.5t34 155t12 173q0 6 2 12t7 10q20 -3 39 -7t37 -13q1 -8 1 -15v-14q0 -110 -25.5 -220t-68.5 -216t-99 -206t-117 -189l-62 -89t-70 -83z
" />
    <glyph glyph-name="braceright" unicode="}" horiz-adv-x="237" 
d="M-81 -301q-3 -1 -10 -1q-16 0 -31.5 6.5t-30.5 11.5l58 77t58 78l35.5 51.5l38.5 59l36.5 60t29.5 53.5q40 82 72 156.5t54 149.5t34 155t12 173q0 6 2 12t7 10q20 -3 39 -7t37 -13q1 -8 1 -15v-14q0 -110 -25.5 -220t-68.5 -216t-99 -206t-117 -189l-62 -89t-70 -83z
" />
    <glyph glyph-name="asciicircum" unicode="^" horiz-adv-x="269" 
d="M119 490l4 3h141l2 -3l20 -236l-49 -1l-53 162l-144 -162l-53 1z" />
    <glyph glyph-name="a" unicode="a" horiz-adv-x="389" 
d="M379 329q-9 -20 -19.5 -40l-20.5 -40q-46 -3 -88 -13.5t-80 -37.5q-29 -21 -52 -48t-29 -64q8 0 16.5 -0.5t17.5 -0.5q32 0 46.5 13t22 31.5t13.5 40.5t21 40q21 2 42 3t42 4q-4 -15 -10.5 -30l-12.5 -30t-10 -31t-4 -32v-9q20 -3 40 -3.5t40 -0.5q-6 -20 -14.5 -38.5
l-17.5 -37.5h-36q-17 0 -38.5 2.5t-37.5 10.5q-5 3 -8 5t-10 2q-10 0 -19.5 -4.5t-18.5 -6.5q-14 -4 -29.5 -5.5t-30.5 -1.5q-10 0 -22 0.5t-22 2.5q-12 3 -20 12t-12.5 21t-6 24.5t-1.5 22.5q0 22 11 46.5t27.5 48t35.5 43.5t35 34q25 21 57 34.5t66.5 20.5t69.5 9.5
t67 2.5z" />
    </font>
</defs>
</svg>
